<svg xmlns="http://www.w3.org/2000/svg" xmlns:xlink="http://www.w3.org/1999/xlink" viewBox="0 0 114 125" fill="#fff"><g stroke-width="0" fill-rule="evenodd"><path d="m79.422 42.022-1.18-7.922s-3.37-4.72-5.9 3.96c0 0-1.12 4.557-4.517 8.428-1.483 1.693-2.644 3.669-3.333 5.812a3.962 3.962 0 0 0-.04.126c-.811 2.6.149 5.453 2.332 7.081 3.542 2.637 10.28 6.405 18.537 4.933 0 0 11.632 1.518 10.452-7.922 0 0-.337-1.517-5.394-4.045 0 0-10.148-5.027-10.957-10.451M60.796 58.035s7.08 7.585 12.895 9.86c0 0 2.782 1.013 2.782 3.035v24.905c0 2.467-2.16 4.51-4.595 4.116a2.729 2.729 0 0 1-.155-.028c-1.071-.202-1.825-1.183-1.825-2.273V81.297H44.361l6.827 12.136s.251.66.421 1.56c.596 3.16-3.554 4.906-5.423 2.29l-8.905-12.446-6.94 11.641c-.79 1.328-2.233 2.214-3.773 2.107-1.02-.072-1.95-.586-2.086-2.174-.09-1.072.262-2.134.833-3.047l6.909-11.056-1.263-18.71-6.212-4.555c-1.265-.928-2.23-2.254-2.543-3.79-.285-1.39.38-3.165 2.433-2.78l9.102 6.574 27.055-1.012ZM60.408 54.634 25.65 23" /><path stroke="currentColor" stroke-width="2" stroke-linecap="round" d="M60.408 54.634 25.65 23" /></g></svg>