<svg xmlns="http://www.w3.org/2000/svg" xmlns:xlink="http://www.w3.org/1999/xlink" viewBox="0 0 114 123" fill="#fff"><g stroke-width="0" fill-rule="evenodd"><path d="M81.313 20.6s-4.505-1.327-9.664-5.237c0 0-2.543-2.121-4.723 0 0 0-3.27 2.916-4.505 6.562 0 0-1.598.729-2.107 3.447v.862l-2.252 5.501 6.539-3.977s1.453-6.43 7.048-6.23c0 0 1.89-.266 3.56.927 0 0 4.505-.398 6.104 2.784 0 0 3.633-1.856 0-4.64" /><path d="M79.424 30.277s2.76-2.055 1.235-5.038c0 0-1.671-3.115-7.702-1.856 0 0-3.488 1.525-7.12 4.309l-8.356 5.17s-3.052 2.121-1.962 4.507c0 0 .58 2.254 2.543 3.182 0 0 10.463 4.772 11.117 13.588 0 0-1.017 2.983 1.38 3.447 0 0 3.197.928 3.488-2.983 0 0-.509-3.645-5.304-8.816 0 0-3.197-3.712-9.446-7.821 0 0-1.163-.53-.073-1.392 0 0 3.125-4.574 10.39-4.839 0 0 8.284-.596 9.81-1.458" /><path d="M58.062 30.289s-14.18 5.485-16.869 10.094c0 0-1.67 2.422 1.817 4.013l9.405 4.868.692-2.063-7.554-4.53s-1.599-.794-.073-1.988c0 0 5.74-2.518 9.446-3.314 0 0-1.64-2.278 1.962-4.507l1.174-2.573Z" /><path d="m56.124 39.33-7.363 19.206s-.292 1.15 1.259 1.415c0 0 3.26 0 5.263-.884 0 0 .647-.266 1.519.884 0 0 7.75 1.679 9.204 3.535 0 0 .678 1.414 1.84 0l6.782-20.063 2.81-.088.678-2.952-1.84-1.644v-1.59l-2.132-1.238s3.197-1.635 1.453-4.176l-3.1-1.447-2.883 1.447h-5.837l-3.487 2.674-1.636 1.325" /><path d="m49.197 58.906 11.77-.723s7.122.663 6.976 4.772c0 0 1.577 3.05-3.062 7.69 0 0-7.255 8.749-7.255 15.378 0 0-1.163 4.109 1.889 4.905 0 0 14.387 7.821 14.241 15.51 0 0-.145 2.387-3.487 2.122 0 0-2.471.132-2.035-3.315 0 0 3.163-7.424-11.498-12.86 0 0-5.214-2.385-3.906-9.81l3.906-12.328-13.897.53-6.721 8.882s-1.889 2.917.727 4.773c0 0 7.847 9.147 7.556 16.703 0 0-.145 1.989-2.18 1.989 0 0-2.179.265-1.598-3.049 0 0 2.47-6.894-6.975-15.378 0 0-4.505-3.05-1.599-8.087l12.498-16.208s1.762-1.318 4.65-1.496" /></g></svg>