<svg xmlns="http://www.w3.org/2000/svg" xmlns:xlink="http://www.w3.org/1999/xlink" viewBox="0 0 100 100" fill="#fff"><path d="M41.982 63.07c-.408.52-.833 1.172-1.275 1.954a56.176 56.176 0 0 0-1.48 2.835c-1.156 2.15-2.04 3.975-2.652 5.473-.612 1.5-1.292 2.688-2.04 3.568-.748.88-1.735 1.515-2.959 1.906-1.224.39-3.026.586-5.407.586H5.664c-1.769 0-3.146-.619-4.132-1.857-.986-1.238-1.496-2.622-1.53-4.154-.034-1.531.425-2.916 1.377-4.154s2.482-1.857 4.59-1.857c.953 0 2.058-.016 3.316-.049 1.259-.032 2.568-.049 3.928-.049 1.36 0 2.72-.016 4.08-.049 1.361-.032 2.62-.048 3.775-.048 1.225 0 2.313-.538 3.265-1.613s1.802-2.379 2.55-3.91a62.311 62.311 0 0 0 2.04-4.643c.613-1.564 1.191-2.834 1.735-3.812.204-.39.425-.782.663-1.173.238-.39.493-.814.765-1.27 1.293.325 2.585.847 3.877 1.564 1.292.716 2.414 1.726 3.367 3.03.884 1.303 1.513 2.622 1.887 3.958.374 1.336.629 2.59.765 3.763Zm1.53 5.864a160.877 160.877 0 0 1 4.183 5.376c.476.651.918 1.303 1.326 1.955.408.651.714 1.221.918 1.71.204.489.29.88.255 1.173-.034.293-.255.44-.663.44h-3.06c-1.224 0-2.415-.033-3.57-.098-1.361 0-2.755-.032-4.184-.098l4.795-10.458ZM87.09 23c1.793 0 3.467.325 5.02.974a13.225 13.225 0 0 1 4.095 2.663 12.525 12.525 0 0 1 2.78 3.951c.677 1.508 1.016 3.121 1.016 4.84 0 1.718-.339 3.33-1.016 4.839a12.525 12.525 0 0 1-2.78 3.951 13.225 13.225 0 0 1-4.094 2.664c-1.554.649-3.228.973-5.021.973-1.794 0-3.477-.324-5.051-.973a13.134 13.134 0 0 1-4.125-2.664 12.525 12.525 0 0 1-2.78-3.951c-.677-1.508-1.015-3.121-1.015-4.84 0-1.718.338-3.33 1.016-4.839a12.525 12.525 0 0 1 2.78-3.951 13.134 13.134 0 0 1 4.124-2.663c1.574-.65 3.257-.974 5.05-.974ZM69.017 40.882c.816 1.368 2.074 3.046 3.774 5.033 1.7 1.988 3.571 4.154 5.611 6.5a697.273 697.273 0 0 1 6.326 7.38 188.614 188.614 0 0 1 6.019 7.477c1.836 2.476 2.499 4.708 1.989 6.696-.51 1.987-1.632 3.518-3.367 4.594-1.734 1.075-3.808 1.547-6.223 1.417-2.414-.13-4.608-1.075-6.58-2.835-1.972-1.76-3.57-3.486-4.795-5.18a90.423 90.423 0 0 1-3.162-4.643 537.8 537.8 0 0 1-2.296-3.665c-.646-1.043-1.41-1.825-2.295-2.346-.816-.521-1.275-.978-1.377-1.368-.102-.391-.306-.685-.612-.88-.306-.196-.953-.293-1.939-.293-.986 0-2.84.13-5.56.39-.816.13-1.564.212-2.244.245-.68.033-1.292.081-1.836.147l-9.08-18.474a24.515 24.515 0 0 1 5.662-3.128 16.86 16.86 0 0 1 6.172-1.173c2.38 0 4.387-.049 6.02-.146 1.631-.098 3.026-.05 4.182.146 1.156.196 2.16.587 3.01 1.173.85.587 1.717 1.564 2.6 2.933Z" fill="#FFF" fill-rule="nonzero" stroke-width="0" /></svg>