<svg xmlns="http://www.w3.org/2000/svg" xmlns:xlink="http://www.w3.org/1999/xlink" viewBox="0 0 100 100" fill="#fff"><g fill="#FFF" fill-rule="nonzero" stroke-width="0"><path d="M55.555 8.415c-.005 3.409 2.07 6.485 5.259 7.794a8.61 8.61 0 0 0 9.302-1.82 8.351 8.351 0 0 0 1.855-9.184C70.651 2.055 67.54 0 64.087 0c-4.707 0-8.525 3.765-8.532 8.415Zm34.266 40.183a23.967 23.967 0 0 1-11.998-7.58c-1.75-2.171-3.092-7.58-3.986-16.191a1.08 1.08 0 0 0-.075-.368 7.32 7.32 0 0 0-5.179-3.79 33.947 33.947 0 0 0-10.283 0 3.295 3.295 0 0 0-.373.122h-.136c-.223.087-.439.19-.646.307-1.813.944-6.582 4.182-12.308 14.192a46.45 46.45 0 0 0-5.13 18.153v1.092a2.713 2.713 0 0 0 2.659 2.085 2.784 2.784 0 0 0 2.484-1.582c1.428-3.925 4.67-12.426 5.638-14.965.187-.494.474-.945.845-1.324a33.138 33.138 0 0 1 4.967-4.122v28.58a.327.327 0 0 1 0 .184 57.87 57.87 0 0 1-5.514 14.425c-2.198 4.122-6.408 9.408-11.177 16.326A4.605 4.605 0 0 0 39 96.387c.145.884.541 1.71 1.143 2.38a3.988 3.988 0 0 0 3.117 1.226 3.565 3.565 0 0 0 2.447-.944c.074 0 .111-.11.186-.184 4.769-4.048 8.308-9.641 11.364-14.72a145.91 145.91 0 0 0 8.16-15.945.726.726 0 0 1 1.155-.22c6.217 5.788 9.98 10.503 11.289 14.142a56.911 56.911 0 0 1 2.608 13.357c.058 1.6 1.274 2.927 2.881 3.14h1.602c1.853-.167 3.316-1.627 3.465-3.458-.149-11.114-1.59-18.67-3.639-22.828-2.16-4.49-6.95-10.303-14.37-17.442a.768.768 0 0 1-.26-.663c.522-6.476.969-9.42 1.304-8.905 4.77 7.544 12.817 8.98 17.387 9.237 1.47.087 2.783-.898 3.093-2.319v-.11c.333-1.54-.585-3.076-2.111-3.533Z" /><path d="M18.782 77h20.436C41.739 77 43 78.167 43 80.5S41.74 84 39.218 84H18.782C16.261 84 15 82.833 15 80.5s1.26-3.5 3.782-3.5ZM11.782 86h20.436C34.739 86 36 87.167 36 89.5S34.74 93 32.218 93H11.782C9.261 93 8 91.833 8 89.5S9.26 86 11.782 86Z" /></g></svg>