<svg xmlns="http://www.w3.org/2000/svg" xmlns:xlink="http://www.w3.org/1999/xlink" viewBox="0 0 100 100" fill="#fff"><g fill="#FFF" fill-rule="nonzero" stroke-width="0"><path d="M46 8a8 8 0 1 0 16 0 8 8 0 0 0-16 0ZM25.089 58.3c1.5-9.319 3.144-15.561 4.934-18.73 5.85-10.35 11.912-14.986 13.751-15.205 3.706-.441 8.115-.53 10.327 0 2.565.614 4.325 1.903 5.278 3.867.886 8.53 2.229 13.852 4.027 15.968 4.98 5.86 12.449 7.82 14.594 7.82 0 2.054-1.085 5.432-1.085 5.432-3.182 0-14.065 0-19.954-9.072-.33-.51-.782 2.514-1.352 9.072 7.63 7.092 12.56 12.847 14.79 17.264 2.23 4.417 3.343 12.845 3.338 25.284h-7.492c-.522-6.796-1.468-12.04-2.839-15.733-1.37-3.692-5.4-8.522-12.087-14.49-2.555 5.808-5.415 11.286-8.58 16.434-3.165 5.149-7.233 9.745-12.205 13.789H23c6.248-8.56 10.683-15.21 13.304-19.951 2.62-4.742 4.484-9.461 5.59-14.158V37.097c-1.972.56-3.836 2.551-5.59 5.975-1.091 2.13-3.015 7.206-5.77 15.227h-5.445Z" /></g></svg>