<svg xmlns="http://www.w3.org/2000/svg" xmlns:xlink="http://www.w3.org/1999/xlink" viewBox="0 0 100 100" fill="#fff"><g fill="#FFF" fill-rule="nonzero" stroke-width="0"><path d="M59 11a8 8 0 1 0 16 0 8 8 0 0 0-16 0Z" /><path d="M27.535 33.015c4.63-5.722 8.46-8.582 11.49-8.582h12.37C47.05 36.11 43.049 44.019 39.388 48.159c-5.49 6.21-8.265 9.113-17.351 9.113-6.058 0-11.358-3.038-15.901-9.113L3 52.615c6.873 8.297 13.761 13.013 20.664 14.147 11.465 1.884 17.686-3.148 23.36-7.212 4.544 2.278 17.886 6.589 16.748 15.639-.758 6.033-2.887 12.97-6.386 20.811h7.811c4.11-6.292 6.92-13.994 8.435-23.107 1.514-9.112-4.365-17.1-17.637-23.962l8.614-10.907c2.697 7.28 6.317 11.68 10.86 13.198 4.543 1.52 11.72-.261 21.531-5.341l-2.272-4.556c-7.768 1.957-13.166 2.176-16.195.657-4.543-2.278-3.391-8.19-6.848-14.18-3.816-6.614-6.488-9.198-10.629-11.668-4.142-2.47-20.51-3.617-27.348 1.19-4.558 3.205-8.03 7.722-10.418 13.551l4.245 2.14Z" /></g></svg>