<svg xmlns="http://www.w3.org/2000/svg" xmlns:xlink="http://www.w3.org/1999/xlink" viewBox="0 0 100 100" fill="#fff"><g fill="#FFF" fill-rule="nonzero" stroke-width="0"><path d="M42 6a6 6 0 1 0 12 0 6 6 0 0 0-12 0ZM30.74 51.018l3.082-3.882c-2.055-4.48-3.082-7.543-3.082-9.188 0-2.467 1.438-8.336 5.264-9.572v16.849L30.74 87h6.38l8.478-31.462 9.515.776c2.743.376 4.115 1.311 4.115 2.806-.365 1.922-1.929 6.971-4.691 15.15h6.825l5.819-13.043c2.42-6.553 1.13-11.25-3.87-14.092-5-2.842-9.307-3.953-12.918-3.335l.805-10.098c2.631 3.692 5.308 5.95 8.03 6.777 2.722.825 6.794 1.74 12.218 2.745L73 39.384c-8.548-3.493-13.36-6.312-14.435-8.457-1.613-3.218-3.452-9.882-3.452-10.933 0-1.052-8.148-5.924-17.992-3.153-6.017 1.694-8.444 5.201-9.83 7.184-1.387 1.983-6.04 6.278-3.59 16.453 1.43 4.438 3.777 7.951 7.04 10.54h-.001Z" /><path d="M90 55.814H70.211V79.07H49.69V100H31v-5.814h13.192V73.257h20.523V50H90z" /></g></svg>