<svg xmlns="http://www.w3.org/2000/svg" xmlns:xlink="http://www.w3.org/1999/xlink" viewBox="0 0 47 72" fill="#fff"><defs><filter color-interpolation-filters="auto" id="op_active_menu_a"><feColorMatrix in="SourceGraphic" values="0 0 0 0 1.000000 0 0 0 0 1.000000 0 0 0 0 1.000000 0 0 0 1.000000 0"></feColorMatrix></filter></defs><g filter="url(#op_active_menu_a)" fill="none" fill-rule="evenodd"><path d="M19.192 12.198c1.698 0 3.131-.594 4.308-1.776 1.177-1.18 1.77-2.62 1.77-4.323 0-1.695-.593-3.134-1.77-4.323C22.323.595 20.89 0 19.192 0c-1.69 0-3.13.595-4.307 1.776-1.185 1.181-1.778 2.628-1.77 4.323 0 1.704.593 3.142 1.77 4.323 1.177 1.182 2.618 1.776 4.307 1.776Zm24.1 12.89h-8.398l-4.332-6.461c-2.226-3.287-4.868-4.926-7.935-4.926h-9.2c-2.522 0-4.5.763-5.949 2.274-1.44 1.519-2.161 3.552-2.161 6.091v9.538L.737 37.6C.24 38.266 0 38.893 0 39.504c0 1.639 1.065 2.45 3.203 2.45.977 0 1.89-.675 2.746-2.033l3.115-4.901c1.28-1.23 1.761-2.813 1.465-4.717V22.62h1.225V66.11c0 2.177.08 3.503.264 3.986.48 1.27 1.53 1.904 3.147 1.904 1.561 0 2.578-.579 3.059-1.728.232-.659.352-1.96.352-3.897V41.962h1.641V66.73c0 3.511 1.081 5.263 3.235 5.263 1.505 0 2.49-.546 2.97-1.631.233-.547.353-1.72.353-3.536V22.548l3.339 5.231c1.145 1.752 2.226 2.628 3.25 2.628h9.849c2.522 0 3.787-.852 3.787-2.563 0-1.84-1.241-2.757-3.707-2.756Z" fill="#000" fill-rule="nonzero" /></g></svg>