<svg xmlns="http://www.w3.org/2000/svg" xmlns:xlink="http://www.w3.org/1999/xlink" viewBox="0 0 70 88" fill="#fff"><defs><filter color-interpolation-filters="auto" id="op_chat_a"><feColorMatrix in="SourceGraphic" values="0 0 0 0 1.000000 0 0 0 0 1.000000 0 0 0 0 1.000000 0 0 0 1.000000 0"></feColorMatrix></filter></defs><g filter="url(#op_chat_a)" fill="none" fill-rule="evenodd"><g fill="#000" fill-rule="nonzero"><path d="M35.177 23.897V20.1c0-1.354-1.498-2.387-2.837-2.387-1.34 0-2.986 1.033-2.986 2.387v3.795h-3.276V20.1c0-1.354-1.596-2.446-2.933-2.446-1.34 0-2.888 1.092-2.888 2.446v3.795h-4.918v-9.891h-1.614V5.391c0-1.347-1.526-2.444-2.862-2.444C9.522 2.947 7.9 4.045 7.9 5.39v8.614H6.183v10.708h.135C2.613 26.299 0 30 0 34.296v16.166c0 3.3 1.55 6.244 3.946 8.153 0 .02-.004.045-.004.064v18.92c0 .782.087 1.544.251 2.277C5.23 84.512 9.357 88 14.253 88h16.86c4.893 0 9.02-3.489 10.057-8.124.167-.747.251-1.511.251-2.277v-18.92l-.002-.064a10.412 10.412 0 0 0 3.942-8.153V34.296c0-5.678-4.57-10.33-10.184-10.4Zm2.756 23.85H7.33V33.628h30.602v14.119Zm23.52-38.073a31.55 31.55 0 0 1 6.106 9.38c1.49 3.511 2.303 7.212 2.439 11.102.026.545-.164 1.013-.572 1.404a1.728 1.728 0 0 1-1.197.51l-.122-.003a1.744 1.744 0 0 1-1.27-.574 1.758 1.758 0 0 1-.505-1.207 27.371 27.371 0 0 0-2.154-9.793 27.78 27.78 0 0 0-5.38-8.274 27.522 27.522 0 0 0-7.91-5.847 26.718 26.718 0 0 0-9.58-2.674 1.728 1.728 0 0 1-1.17-.571c-.386-.412-.553-.89-.499-1.432.032-.455.22-.849.566-1.18.408-.392.882-.56 1.42-.505 3.85.345 7.471 1.356 10.865 3.033a31.18 31.18 0 0 1 8.963 6.63ZM48.388 22.116a9.037 9.037 0 0 1 2.27 4.255c.072.328.062.65-.03.964-.089.309-.258.589-.49.81a1.737 1.737 0 0 1-.842.446 1.891 1.891 0 0 1-.467.05 1.762 1.762 0 0 1-1.28-.585 1.75 1.75 0 0 1-.454-.84 5.493 5.493 0 0 0-1.362-2.557 5.435 5.435 0 0 0-2.47-1.514 1.872 1.872 0 0 1-.828-.5c-.479-.51-.626-1.106-.44-1.789.089-.324.25-.6.486-.825.504-.484 1.095-.632 1.771-.444a9.018 9.018 0 0 1 4.135 2.528l.001.001Z" /><path d="M55.4 16.296a20.815 20.815 0 0 1 3.882 5.818 20.142 20.142 0 0 1 1.711 6.862c.047.589-.145 1.089-.574 1.5-.323.309-.706.478-1.148.509-.097.011-.159.016-.186.015a1.781 1.781 0 0 1-1.295-.584 1.835 1.835 0 0 1-.516-1.166 16.635 16.635 0 0 0-1.403-5.62 16.932 16.932 0 0 0-3.167-4.762 16.828 16.828 0 0 0-4.564-3.428 16.372 16.372 0 0 0-5.504-1.699 1.789 1.789 0 0 1-1.12-.568 1.784 1.784 0 0 1-.498-1.527c.052-.441.24-.817.565-1.127.43-.412.936-.578 1.517-.5 2.378.288 4.618.98 6.721 2.071a20.777 20.777 0 0 1 5.575 4.202l.003.004Z" /></g></g></svg>