<svg xmlns="http://www.w3.org/2000/svg" xmlns:xlink="http://www.w3.org/1999/xlink" viewBox="0 0 36 36" fill="#fff"><path d="M33.918 27.328c.834.856 1.444 1.64 1.833 2.354.388.713.323 1.525-.195 2.438a7.983 7.983 0 0 1-.474.62c-.201.243-.41.478-.625.706a8.671 8.671 0 0 1-.647.62c-.215.186-.395.322-.539.407-.718.428-1.566.542-2.544.342-.977-.2-1.854-.684-2.63-1.454l-1.811-1.797-2.415-2.396-2.846-2.824-3.104-3.08-5.52 5.476a456.821 456.821 0 0 0-4.139 4.15c-1.092 1.084-2.177 1.754-3.255 2.011-1.078.257-2.034.014-2.868-.727l-.301-.3-.475-.47-.474-.471c-.173-.171-.273-.285-.302-.342-.316-.4-.503-.806-.56-1.22a2.7 2.7 0 0 1 .107-1.219c.13-.4.324-.784.582-1.155a7.44 7.44 0 0 1 .863-1.027c.259-.228.718-.656 1.38-1.283l2.328-2.396c.949-.913 2.005-1.94 3.17-3.08a825.242 825.242 0 0 0 3.643-3.594 960.951 960.951 0 0 0-3.946-3.893c-1.25-1.227-2.371-2.325-3.363-3.295a843.06 843.06 0 0 0-2.436-2.374c-.632-.613-1.02-.991-1.164-1.134C.443 6.18.062 5.445.048 4.718c-.014-.727.237-1.462.755-2.203.23-.286.56-.62.991-1.006.432-.385.733-.634.906-.748.862-.57 1.638-.82 2.328-.75.69.072 1.38.464 2.07 1.177l1.337 1.327c.66.656 1.48 1.454 2.457 2.395.978.942 2.077 2.004 3.3 3.188a5814.04 5814.04 0 0 1 3.815 3.7 654.326 654.326 0 0 1 3.212-3.165c1.05-1.027 2.027-1.99 2.933-2.888.905-.899 1.724-1.704 2.457-2.417.733-.714 1.344-1.312 1.833-1.797.69-.656 1.437-1.091 2.242-1.305.805-.214 1.581-.036 2.328.535.03.028.123.1.28.213.159.115.317.243.475.386l.453.406c.144.128.244.207.302.235.776.742 1.157 1.548 1.142 2.417-.014.87-.395 1.676-1.142 2.418-.518.513-1.157 1.155-1.92 1.925-.76.77-1.609 1.611-2.543 2.524-.934.913-1.919 1.882-2.954 2.91l-3.277 3.25 3.126 3.017c1.02.984 1.97 1.904 2.846 2.76.877.855 1.667 1.64 2.372 2.352.704.713 1.286 1.298 1.746 1.754Z" fill="#eee" fill-rule="nonzero" stroke-width="0" /></svg>