<svg xmlns="http://www.w3.org/2000/svg" xmlns:xlink="http://www.w3.org/1999/xlink" viewBox="0 0 46 45" fill="#fff"><defs><filter color-interpolation-filters="auto" id="op_model_menu_a"><feColorMatrix in="SourceGraphic" values="0 0 0 0 1.000000 0 0 0 0 1.000000 0 0 0 0 1.000000 0 0 0 1.000000 0"></feColorMatrix></filter></defs><g filter="url(#op_model_menu_a)" fill="none" fill-rule="evenodd"><path d="M16.707 20.354H4.099C1.834 20.354 0 18.346 0 15.864V7.485C0 3.351 3.06 0 6.834 0h9.873c2.266 0 4.1 2.009 4.1 4.49v11.374c.005 2.482-1.834 4.49-4.1 4.49Zm0 24.646H6.834C3.06 45 0 41.649 0 37.515v-8.38c0-2.48 1.834-4.49 4.1-4.49h12.607c2.266 0 4.1 2.01 4.1 4.49V40.51c.005 2.481-1.834 4.49-4.1 4.49Zm22.459 0h-9.873c-2.266 0-4.1-2.009-4.1-4.49V29.136c0-2.482 1.834-4.49 4.1-4.49h12.608c2.265 0 4.099 2.008 4.099 4.49v8.379C46.005 41.649 42.94 45 39.166 45Z" fill="#221714" fill-rule="nonzero" /><path d="M39.166 1c1.601 0 3.046.72 4.094 1.867C44.339 4.049 45 5.683 45 7.485v8.381c.002.974-.352 1.859-.935 2.498-.554.606-1.317.99-2.164.99H29.293c-.847 0-1.608-.383-2.16-.988-.585-.64-.94-1.526-.94-2.502V4.49c0-.975.355-1.861.94-2.501.552-.606 1.313-.989 2.16-.989Z" stroke="currentColor" stroke-width="2" /></g></svg>