<svg xmlns="http://www.w3.org/2000/svg" xmlns:xlink="http://www.w3.org/1999/xlink" viewBox="0 0 97 97" fill="#fff"><defs><linearGradient x1="100%" y1="26.07%" x2="13.21%" y2="87.051%" id="op_photo_a"><stop stop-color="#6879E4" offset="0%" /><stop stop-color="#495ABF" offset="100%" /></linearGradient></defs><path d="M40.401 0c2.302 0 4.336 1.487 5.016 3.666l1.638 5.253h4.695c4.556 0 8.25 3.66 8.25 8.176v29.73C60 51.34 56.306 55 51.75 55H8.25C3.694 55 0 51.34 0 46.824v-29.73C0 12.58 3.694 8.92 8.25 8.92h4.695l1.638-5.253C15.263 1.486 17.297 0 19.599 0h20.802ZM30 19.324c-6.213 0-11.25 4.992-11.25 11.149 0 6.157 5.037 11.149 11.25 11.149s11.25-4.992 11.25-11.149c0-6.157-5.037-11.149-11.25-11.149Zm0 17.838c3.728 0 6.75-2.995 6.75-6.689s-3.022-6.69-6.75-6.69-6.75 2.996-6.75 6.69c0 3.694 3.022 6.69 6.75 6.69Z" transform="translate(19 21)" fill="url(#op_photo_a)" fill-rule="nonzero" stroke-width="0" /></svg>