<svg xmlns="http://www.w3.org/2000/svg" xmlns:xlink="http://www.w3.org/1999/xlink" viewBox="0 0 81 81" fill="#fff"><path d="M41 16c-13.243 0-24 10.757-24 24s10.757 24 24 24 24-10.757 24-24-10.757-24-24-24Zm-1 45c-10.85-.436-19.564-9.194-20-20h6.972c.435 7.015 6.056 12.593 13.028 13.028V61Zm0-11c-4.767-.411-8.589-4.233-9-9h6.658A3.226 3.226 0 0 0 40 43.342V50Zm0-13.342c-1.15.287-2.014 1.191-2.342 2.342H31c.411-4.767 4.233-8.589 9-9v6.658Zm0-9.686c-7.015.435-12.593 6.056-13.028 13.028H20c.436-10.85 9.194-19.564 20-20v6.972Zm2.043 3.506a10.57 10.57 0 0 1 2.69.609 5.16 5.16 0 0 1 1.91-3c-1.433-.609-2.994-1-4.6-1.13V20a20.74 20.74 0 0 1 13.016 5.304l-2.473 2.522c.477.304.954.696 1.301 1.174l2.43-2.435A20.803 20.803 0 0 1 62 40h-6.941a13.772 13.772 0 0 0-1.085-4.609 5.147 5.147 0 0 1-2.994 1.913c.304.87.521 1.74.608 2.696H44.56a3.455 3.455 0 0 0-.564-1.13l2.56-2.566c-.435-.347-.825-.826-1.172-1.304l-2.733 2.74c-.217-.088-.39-.175-.651-.218v-7.044h.043ZM42 43.384A3.265 3.265 0 0 0 44.384 41H51c-.411 4.767-4.233 8.589-9 9v-6.616ZM42 61v-6.972c7.015-.435 12.593-6.056 13.028-13.028H62c-.436 10.85-9.15 19.564-20 20Zm7.5-26a3.51 3.51 0 0 1-3.5-3.5 3.51 3.51 0 0 1 3.5-3.5 3.51 3.51 0 0 1 3.5 3.5 3.51 3.51 0 0 1-3.5 3.5Z" stroke-width="0" fill="currentColor" /></svg>