<svg xmlns="http://www.w3.org/2000/svg" xmlns:xlink="http://www.w3.org/1999/xlink" viewBox="0 0 97 97" fill="#fff"><defs><linearGradient x1="100%" y1="38.612%" x2="13.21%" y2="67.632%" id="op_video_a"><stop stop-color="#6879E4" offset="0%" /><stop stop-color="#495ABF" offset="100%" /></linearGradient><linearGradient x1="76.446%" y1="21.522%" x2="30.541%" y2="94.094%" id="op_video_b"><stop stop-color="#6879E4" offset="0%" /><stop stop-color="#495ABF" offset="100%" /></linearGradient></defs><g fill-rule="nonzero" fill="none"><path d="M62.023 6.987 54.62 10.32a1.062 1.062 0 0 1-1.494-.98V4.3c0-2.378-1.906-4.3-4.25-4.3H4.25C1.906 0 0 1.922 0 4.3v34.4C0 41.072 1.906 43 4.25 43h44.625c2.344 0 4.25-1.928 4.25-4.3v-5.032c0-.78.79-1.297 1.494-.981l7.404 3.326c2.81 1.263 5.977-.82 5.977-3.931V10.918c0-3.11-3.168-5.194-5.977-3.93Zm-28.56 17.308L22.61 30.637a3.097 3.097 0 0 1-1.587.437 3.209 3.209 0 0 1-3.194-3.232V15.159a3.213 3.213 0 0 1 3.194-3.232c.531 0 1.076.134 1.587.437l10.851 6.342c2.125 1.243 2.125 4.347 0 5.59Z" fill="url(#op_video_a)" transform="translate(17 27)" /><path fill="url(#op_video_b)" d="M30 21.504 22 27V16z" transform="translate(17 27)" /></g></svg>