<svg xmlns="http://www.w3.org/2000/svg" viewBox="0 0 114 123.2" fill="currentColor"><defs><path id="icon/active/icon_active_forwardPush_white_a" d="M0 0h48v74H0z" /></defs><g fill-rule="evenodd"><path d="M59.5 39a8.5 8.5 0 1 0 0-17 8.5 8.5 0 0 0 0 17" /><g transform="translate(35 34)"><mask id="icon/active/icon_active_forwardPush_white_b" fill="#fff"><use xlink:href="#icon/active/icon_active_forwardPush_white_a" /></mask><path d="M46.037.083c-2.476-.612-3.792 2.366-3.792 2.366l-4.1 9.968c-.199.6-.93.626-1.637.489a4.651 4.651 0 0 1-.38-.091l2.324-5.616c1.852-5.157-1.268-6.001-1.268-6.001-2.339-.579-3.582 2.236-3.582 2.236l-2.408 5.852-1.768-1.455a8.378 8.378 0 0 0-4.195-1.847c-1.92-.26-3.44.057-3.44.057-4.85.522-6.603 8.78-6.603 8.78l-2.27 13.587c-1.135 4.495-2.064 8.99-2.064 8.99l-1.341 9.406c-.103 1.464-1.548 4.39-1.548 4.39L.743 66.141c-2.063 4.494.825 6.167.825 6.167 3.612.836 5.262-2.3 5.262-2.3L14.26 55.48c1.548-2.195 1.754-4.913 1.754-4.913l1.444-10.557c.413-2.09 1.032-1.986 1.032-1.986l6.707 12.02c1.444 1.986 1.96 4.704 1.96 4.704l2.682 15.47c.62 4.285 4.127 3.762 4.127 3.762 3.302-.94 2.477-5.958 2.477-5.958L33.45 54.643c-.413-4.494-2.477-7.525-2.477-7.525l-4.54-9.303c-.928-1.881-.515-3.553-.515-3.553l1.755-12.964-3.783-3.07a.18.18 0 0 1-.027-.25.174.174 0 0 1 .247-.028l3.79 3.076.073.034c1.609.814 3.168.726 4.107.14.776-.485.95-.897 1.29-1.717l2.917 1.624c1.702.862 3.353.769 4.346.148.854-.534 1.02-.983 1.408-1.92l5.337-12.9C49.338.977 46.037.083 46.037.083" mask="url(#icon/active/icon_active_forwardPush_white_b)" /></g></g></svg>