<svg xmlns="http://www.w3.org/2000/svg" xmlns:xlink="http://www.w3.org/1999/xlink" viewBox="0 0 114 123" fill="#fff"><g fill-rule="nonzero" stroke-width="0"><path d="M77.794 73.989c-.123 4.814-2.224 8.792-5.263 12.375-2.618 3.08-5.617 5.596-9.649 6.603-4.338 1.088-8.493.455-12.511-1.388-3.38-1.55-6.331-3.712-8.956-6.33-4.842-4.836-9.681-9.675-14.517-14.517-.768-.769-1.374-1.578-.993-2.795.707-2.258 2.972-2.917 4.692-1.258 2.353 2.278 4.644 4.624 6.963 6.936.258.258.517.666.81.693.618.061 1.454.136 1.842-.204.333-.292.265-1.162.177-1.747-.048-.327-.483-.612-.762-.898-4.005-4.025-8.03-8.03-12.022-12.07-1.577-1.59-1.033-4.059.993-4.616 1.333-.367 2.387.17 3.325 1.122 3.651 3.705 7.337 7.39 11.009 11.076.258.259.51.53.795.741.64.47 1.306.45 1.89-.088.599-.55.613-1.224.191-1.877-.252-.387-.605-.727-.938-1.06-4.862-4.869-9.73-9.73-14.579-14.606-1.761-1.775-1.204-4.27 1.074-4.896 1.13-.313 1.993.204 2.74.945 2.646 2.611 5.27 5.23 7.895 7.854 2.34 2.346 4.665 4.705 7.004 7.044.306.306.632.748 1 .803.537.088 1.23.054 1.658-.231.585-.381.7-1.102.252-1.741a7.302 7.302 0 0 0-.85-.986c-3.8-3.821-7.616-7.623-11.403-11.45-1.598-1.612-1.136-4.02.884-4.645 1.326-.408 2.387.095 3.332 1.054 3.8 3.828 7.615 7.63 11.423 11.437 2.775 2.781 5.535 5.59 8.344 8.336.428.415 1.108.823 1.665.81 1.014-.014 1.503-1.21 1.02-2.251-1.244-2.672-2.556-5.31-3.746-7.996-.354-.803-.578-1.741-.565-2.612.028-1.835 1.931-2.991 3.57-2.203.626.306 1.313.782 1.646 1.367 3.087 5.433 6.174 10.873 9.111 16.394 1.116 2.088 1.483 4.46 1.449 6.875Z" /><path d="M72.313 92.042c1.442-1.646 2.938-3.19 4.23-4.882 3.107-4.06 5.031-8.588 4.882-13.804-.109-3.848-1.285-7.425-3.176-10.764a1045.897 1045.897 0 0 0-7.044-12.307c-.599-1.027-.898-1.952-.095-2.999.822-1.074 1.87-1.564 3.223-1.373 1.55.224 2.516 1.21 3.243 2.495 1.319 2.305 2.633 4.613 3.944 6.922 1.312 2.305 2.57 4.651 3.944 6.922 4.365 7.201 3.29 15.123-1.537 21.637-2.645 3.577-5.786 6.541-10.18 7.86-.38.116-.763.224-1.148.327-.075.013-.15-.014-.286-.034ZM60.04 47.477c-1.449 1.53-1.945 3.365-1.646 5.623-.299-.218-.442-.3-.557-.415-3.271-3.264-6.508-6.555-9.812-9.778-.755-.734-.694-1.319-.163-2.074 1.074-1.53 3.522-2.053 4.922-.74 2.482 2.325 4.787 4.854 7.256 7.384Zm3.74-13.505c.32-2.556.598-4.814.897-7.248 1.272.55 2.42 1.04 3.754 1.618-1.544 1.87-3.013 3.638-4.651 5.63Zm-13.056-.435c-1.387-1.673-2.774-3.345-4.297-5.174 1.25-.578 2.4-1.109 3.726-1.72.292 2.386.564 4.596.83 6.799-.082.034-.17.061-.259.095ZM59.32 25.5l-1.877 6.093a2.043 2.043 0 0 1-.204.013c-.618-1.999-1.237-3.998-1.897-6.106h3.978Z" /></g></svg>