<svg xmlns="http://www.w3.org/2000/svg" viewBox="0 0 114 123" fill="#fff"><path d="M66.843 30.5c1.177-.013 2.21.81 2.432 1.961l.052.484V55.44h2.484V36.566a2.442 2.442 0 0 1 2.235-2.47c1.281-.119 2.444.757 2.667 2.012l.039.47v18.876h2.457v-9.163c0-1.346 1.111-2.444 2.47-2.444 1.203.026 2.197.875 2.393 2.013l.04.431-.197 18.863c0 9.96-1.673 12.68-3.477 15.699-1.739 2.902-3.542 2.052-3.856 10.536l-.026 1.111h-20.89c-.13-9.948-1.973-9.922-3.62-13.503a23.916 23.916 0 0 1-2.51-9.935V53.52c-.039-1.281.941-2.38 2.236-2.497 1.294-.118 2.47.771 2.666 2.04l.04.483v9.163h2.47V37.77c-.026-1.282.954-2.367 2.248-2.484 1.294-.118 2.458.77 2.667 2.039l.04.444v17.673h2.47V32.945a2.472 2.472 0 0 1 2.47-2.445Zm-19.647 0c1.216 0 2.223.863 2.432 2l.039.445v13.307h2.484V35.376c0-1.346 1.098-2.431 2.47-2.431.784 0 1.517.366 1.974.993a4.856 4.856 0 0 0-1.922 3.164l-.052.64v11.556a4.969 4.969 0 0 0-4.614-.17 4.82 4.82 0 0 0-2.706 3.699l-.04.64V67.52a25.614 25.614 0 0 0 2.746 12.379c1.516 3.412 3.124 3.124 3.372 11.346l.027 1.177h-17.4l-.025-1.112c-.249-8.758-2.013-8.875-3.582-12.3a23.523 23.523 0 0 1-2.51-9.935v-15.53c-.026-1.28.955-2.365 2.249-2.483 1.294-.117 2.457.772 2.666 2.04l.04.444v9.163h2.47V37.77c-.13-1.347.876-2.537 2.235-2.654 1.36-.118 2.576.862 2.693 2.209l.013.444v17.673h2.47V32.945c0-1.347 1.112-2.445 2.471-2.445Z" fill-rule="nonzero" stroke-width="0" /></svg>