<svg xmlns="http://www.w3.org/2000/svg" xmlns:xlink="http://www.w3.org/1999/xlink" viewBox="0 0 129 140" fill="#fff"><g fill-rule="nonzero"><path d="M38.373 61.505C36.388 78.1 56.346 85.043 55.995 85c-9.004-1.082-24.318-10.745-22.903-23.249 1.76-15.535 16.445-17.851 17.07-17.748.625.103-9.792.827-11.789 17.502Z" /><path d="M44.691 62.272c-1.405 14.785 14.816 22.57 14.297 22.725-.52.156-21.667-6.684-19.881-23.15C40.903 45.31 52.388 44.746 53.01 45.052c.62.304-6.91 2.38-8.319 17.221Z" /><path d="M53.072 62.036C51.522 76.31 62.378 83.946 61.99 84c-.386.053-16.433-7.322-14.885-22.013C48.66 47.24 56.58 45.87 57.247 46.009c.67.137-2.616 1.695-4.175 16.027Z" /><path d="M59.896 62.361C58.031 76.651 63.354 83.984 62.981 84c-.373.017-10.376-7.522-8.816-21.632 1.566-14.164 5.029-15.435 5.684-15.365.657.068 1.918 1.006.047 15.358Z" /><path d="M66.989 62.182C66.784 77.08 65.594 84.018 65.293 84c-.305-.018-4.409-7.218-3-21.731C63.71 47.694 63.246 47.022 63.9 47c.616-.021 3.295.244 3.09 15.18Z" /><path d="M72.917 62.274c.938 14.674-6.396 21.779-6.753 21.726-.354-.052 1.408-7.057 1.504-21.723.096-14.698-2.22-15.163-1.544-15.269.67-.105 5.854.577 6.793 15.266Z" /><path d="M80.926 62.094C82.121 77.111 68.395 84.077 68.012 84c-.382-.078 8.302-7.298 7.057-22.008-1.25-14.724-6.234-15.789-5.495-15.975.737-.187 10.16 1.048 11.352 16.078Z" /><path d="M87.998 62.435c.217 15.537-17.324 22.722-17.975 22.562-.651-.158 12.59-7.426 11.572-22.562-1.018-15.154-9.502-17.062-8.52-17.403.983-.343 14.706 1.837 14.923 17.403Z" /><path d="M95.978 62.207c-.74 16.756-22.346 23.958-22.962 23.79-.616-.167 16.713-7.694 16.633-23.734-.08-16.076-13.063-18.884-12.102-19.235.96-.351 19.174 2.367 18.43 19.179ZM68.996 42.763c.061-.198.12-.398.12-.617 0-1.14-.898-2.065-2.006-2.065h-2.224V12h-.77v28.08h-2.224c-1.11 0-2.008.925-2.008 2.066 0 .219.06.42.121.617-2.979.291-5.005.86-5.005 1.516C55 45.23 59.254 46 64.5 46c5.248 0 9.5-.77 9.5-1.72 0-.656-2.026-1.226-5.004-1.517ZM71 86.244C71 85.557 67.865 85 64 85c-3.867 0-7 .557-7 1.244 0 .474 1.492.886 3.688 1.096-.046.142-.09.288-.09.446 0 .824.663 1.493 1.479 1.493h1.639v7.208c-.98.144-1.744.96-1.744 1.99 0 1.028.764 1.844 1.744 1.988v1.233c-.877.144-1.56.878-1.56 1.804v23.637c0 1.027.826 1.861 1.844 1.861a1.853 1.853 0 0 0 1.844-1.861v-23.637c0-.927-.682-1.662-1.561-1.804v-1.233c.98-.143 1.745-.96 1.745-1.988 0-1.03-.764-1.846-1.745-1.991v-7.207h1.638c.817 0 1.48-.669 1.48-1.493 0-.158-.044-.304-.09-.446 2.197-.21 3.689-.622 3.689-1.096Z" /></g></svg>