<svg xmlns="http://www.w3.org/2000/svg" xmlns:xlink="http://www.w3.org/1999/xlink" viewBox="0 0 114 123" fill="#fff"><g stroke-width="0" fill-rule="evenodd"><path d="M22.2 50.51c0 5.445 4.414 9.86 9.858 9.86 5.445 0 9.86-4.415 9.86-9.86 0-5.444-4.415-9.858-9.86-9.858-5.444 0-9.858 4.414-9.858 9.858M71.62 45.937s3.552-.805 4.795 2.235c1.17 2.199.077 4.285-.854 4.983-.4.422-22.775 11.414-22.775 11.414l7.905 8.703L71.793 62.09c1.942-1.44 5.598-1.493 7.19.517 1.767 2.361 9.93 14.596 14.551 21.994.774 1.791-.207 5.002-2.055 6.014-2.082 1.137-4.137 1.225-5.82 0-2.042-2.51-10.784-14.09-10.784-14.09s-9.744 11.362-10.126 11.78c-3.624 3.982-9.439 4.261-13.407.621l-13.95-12.8c-3.969-3.64-5.277-9.577-1.644-13.557 3.4-3.404 25.221-11.767 35.872-16.63M57.484 40.185l-1.314-3.017-10.81 4.707a1.37 1.37 0 0 0-.71 1.803l.22.504a1.37 1.37 0 0 0 1.803.71l10.81-4.707Z" /><path d="m61.511 44.202 6.174-8.878a1.37 1.37 0 0 0-.914-2.138l-10.766-1.67a1.37 1.37 0 0 0-1.467 1.902l4.592 10.549a1.37 1.37 0 0 0 2.382.237v-.002Z" /></g></svg>