<svg xmlns="http://www.w3.org/2000/svg" viewBox="0 0 114 123" fill="#fff"><defs><path id="icon_active_hightWave_white_a" d="M0 0h51.108v94.002H0z" /></defs><g stroke-width="0" fill-rule="evenodd"><path d="M58.432 35.462a7.734 7.734 0 1 0 0-15.47 7.734 7.734 0 0 0 0 15.47" /><path d="M84.76 15.32s-3.366-2.481-4.997 1.18l-.781 3.479-.855-1.87s-.32-.665-1.134-.413c0 0-.8.267-.484 1.156 0 0 1.289 3.925 1.746 4.456 0 0-.345.019-.826 1.327 0 0-3.271 7.386-6.74 11.035 0 0-1.502 2.41-6.222 1.337 0 0-9.497-1.982-16.865 1.596 0 0-3.846 1.872-5.772 7.927 0 0-1.487 4.073-4.074 14.147l-2.146 8.367s-1.267 3.467 2.31 4.513c0 0 3.249 1.21 4.405-2.807l5.615-20.257s.605-.77.66.496v54.715s-.33 2.807 1.927 2.752H54.6s2.532.496 2.422-2.532V75.319s.12-1.486 1.437-1.486c0 0 1.206 0 1.26 1.486v30.99s-.275 2.153 1.707 2.177h5.009s1.872.356 1.817-2.342V55.833s-.726-5.953 2.967-9.252c0 0 10.809-11.07 12.37-20.01 0 0 .653-1.757.144-2.06 0 0 2.529-3.021 2.758-5.914 0 0 .245-2.104-1.731-3.276" /></g></svg>