<svg xmlns="http://www.w3.org/2000/svg" viewBox="0 0 114 123" fill="#fff"><g stroke-width="0" fill-rule="evenodd"><path d="M58.444 64.083a5.365 5.365 0 0 0-1.47 1.01 5.34 5.34 0 0 0-3.705-1.507c-1.349 0-2.601.502-3.524 1.411a4.832 4.832 0 0 0-1.432 3.473c0 3.228 2.788 5.735 7.01 9.532l.17.152 1.481 1.31.29-.256 1.19-1.05.173-.156c4.221-3.797 7.009-6.304 7.009-9.532a4.83 4.83 0 0 0-1.433-3.473 4.975 4.975 0 0 0-3.523-1.411 5.34 5.34 0 0 0-2.236.497" /><path d="m18.351 73.524 28.32-36.057s2.24-1.446 4.111.369c0 0 1.36 1.445.312 3.43l-7.569 9.666s6.889-1.843 11.169 4.96l1.105 2.098s1.02 2.155-.652 3.317c0 0-1.899 1.36-3.911-.567 0 0-1.815-4.252-5.812-3.855 0 0-4.337-.149-6.52 6.7 0 0-2.069 6.68 3.147 11.3 0 0 2.58 2.098 5.471 3.317l5.755 2.608s3.174.878 2.607 4.081c0 0-.737 2.285-3.316 2.098l-19.871-5.187-5.188 2.154-9.158-10.432ZM30.91 54.759l7.173-16.952s1.218-2.58 4.138-1.36c0 0 1.276.68 1.36 2.21L30.912 54.76ZM28.898 55.24l1.333-13.72s.765-2.465 3.628-2.012c0 0 1.02.284 1.389.907l-6.35 14.826ZM95.649 73.405l-28.32-36.057s-2.24-1.446-4.111.368c0 0-1.36 1.446-.312 3.43l7.569 9.666s-6.889-1.842-11.169 4.961l-1.105 2.098s-1.02 2.154.652 3.316c0 0 1.899 1.361 3.911-.567 0 0 1.815-4.252 5.812-3.855 0 0 4.337-.148 6.52 6.7 0 0 2.069 6.68-3.147 11.3 0 0-2.58 2.098-5.471 3.317l-5.755 2.608s-3.174.879-2.607 4.082c0 0 .737 2.284 3.316 2.098l19.871-5.188 5.188 2.155 9.158-10.432ZM83.09 54.64l-7.173-16.952s-1.218-2.58-4.138-1.36c0 0-1.276.68-1.36 2.21l12.67 16.101ZM85.102 55.121l-1.332-13.72s-.766-2.466-3.629-2.012c0 0-1.02.283-1.389.907l6.35 14.825Z" /></g></svg>