<svg xmlns="http://www.w3.org/2000/svg" viewBox="0 0 114 124" fill="currentColor"><g fill-rule="evenodd"><path d="M62.608 36.188a8.094 8.094 0 1 0 0-16.189 8.094 8.094 0 0 0 0 16.19M71.3 67.181v-.001c-.243-4.614-.97-5.829-.728-10.683-.242-2.914.728-14.084-.728-16.026-1.458-1.7-2.914-2.185-3.399-2.185l-4.856-.242c-4.857 0-8.013 2.184-8.498 6.068v15.635c0 1.01-.758 2.163-1.534 2.701.01.678.216 1.097.102 1.762.21-1.218-.083 1.208-.09 1.468-.028.942-.004 1.887.038 2.829.052 1.175.257 2.034.357 3.206l4.653.145a1.864 1.864 0 0 1 1.924 1.75l.62 10.327v19.423c.486 2.43 2.67 3.642 5.585 3.642 2.912 0 4.127-2.185 4.127-4.37l-.243-17.968c.73-6.313 1.214-9.955 1.7-10.925.485-1.457 1.214-1.942.97-6.556" /><path d="M57.714 70.276c.336-2.695.494-5.431.537-8.182-.008 0-.015.002-.023.003l-11.02.58c-3.886 0-5.829 1.943-6.314 4.855l-.243 20.397c.073.99.485 1.942 1.7 2.914 1.457.728 2.273 1.008 3.642.97 2.551-.072 4.333-2.437 4.37-4.128V73.36c0-.485 1.457-1.7 2.186-1.7l5.152-.18c-.036-.398-.037-.8.013-1.204" /></g></svg>