<svg xmlns="http://www.w3.org/2000/svg" xmlns:xlink="http://www.w3.org/1999/xlink" viewBox="0 0 114 123.2" fill="#fff"><g fill-rule="nonzero"><path d="M88.469 46.296 92.73 48.6c.915.494 1.802 1.555 1.17 2.496-.539.814-1.609.695-2.487.22l-5.002-2.706 2.058-2.314Zm-3.155 15.48c1.06 5.019 2.158 10.77 3.329 15.752L99.296 90.1a2.96 2.96 0 0 1-.348 4.179 2.96 2.96 0 0 1-4.18-.347L83.651 80.828a2.925 2.925 0 0 1-.622-1.235l-3.74-11.254 6.026-6.565ZM76.04 43.918a5.164 5.164 0 0 0 2.625 3.118c1.198.603 6.593 1.81 6.593 1.81a30.81 30.81 0 0 1-.366 10.752l-6.172 6.556-8.99 9.828-1.088 16.247A2.973 2.973 0 0 1 65.69 95c-.064 0-.137 0-.201-.01a2.966 2.966 0 0 1-2.762-3.153l1.152-17.353a2.98 2.98 0 0 1 .841-1.884l9.31-12.132c-.53-1.436-2.332-8.32-2.753-9.911l4.764-6.638Zm-16.615-5.943 5.24 1.381c.228.055.438.155.64.274l5.733 4.681c.512.22 2.524.33 3.091.421l-3.85 4.827-7.078-5.988-3.996-1.298.22-4.298Zm-7.974-2.97c1.81.09 6.584 3.473 6.584 3.473l-.156 3.045s-4.837 2.88-6.913 2.77c-2.323-.119-4.097-2.295-3.96-4.864.128-2.56 2.122-4.544 4.445-4.425" /><path d="M84.524 38.167c1.26 1.286 2.476 6.96 2.476 6.96l-2.166 2.108s-5.409-.921-6.843-2.39c-1.618-1.651-1.517-4.653.31-6.432 1.819-1.779 4.605-1.897 6.223-.246M19.173 46.25l4.249-2.3 2.86 3.504-4.998 2.7a2.2 2.2 0 0 1-1.06.265c-.786 0-1.554-.42-1.956-1.168a2.208 2.208 0 0 1 .905-3.001m20.906 14.816 5.739 11.039c.365.483.575 1.058.594 1.66l.11 17.151c.072 1.633-1.207 3.011-2.843 3.084h-.127a2.964 2.964 0 0 1-2.96-2.837l-.074-16.23-4.112-6.359 3.673-7.508ZM27.872 46.898c5.455-.694 7.319-1.214 8.653-3.568 1.553.794 4.404.484 5.72-.072l7.474 6.294 3.948 1.241-.448 4.516c-.037-.046-5.784-1.925-5.784-1.925l-5.309-3.85c-.192.684-1.179 3.877-1.964 6.423L35.036 66.43l-3.984 12.198-6.67 12.316a2.96 2.96 0 0 1-2.815 2.034 3.01 3.01 0 0 1-.932-.146 2.966 2.966 0 0 1-1.892-3.74l6.561-11.942c.868-3.668 3.5-14.688 3.5-14.688-.585-5.292-1.736-10-.932-15.564Zm33.753 10.756c-1.855.027-6.944-3.093-6.944-3.093l-.046-3.102s4.733-3.257 6.853-3.284c2.376-.028 4.322 2.062 4.359 4.68.046 2.618-1.855 4.762-4.222 4.799" /><path d="M28.39 36.88C26.93 38.03 25 43.617 25 43.617L26.996 46s5.818-.53 7.494-1.853c1.873-1.48 2.024-4.3.339-6.309-1.686-2.008-4.566-2.437-6.44-.958" /><path d="M39.192 32.004c-2.495.089-4.543 1.736-5.192 3.942a5.55 5.55 0 0 1 2.02 1.427c1.344 1.488 1.71 3.455 1.106 5.067a5.713 5.713 0 0 0 2.496.46c3.108-.114 5.53-2.648 5.412-5.651-.12-3.012-2.734-5.36-5.842-5.245m35.853.124c-3.09-.337-5.878 1.807-6.225 4.802-.347 2.994 1.865 5.696 4.955 6.033.84.097 1.663 0 2.422-.248-.247-1.524.302-3.216 1.609-4.456A5.722 5.722 0 0 1 80 36.965c-.265-2.49-2.285-4.545-4.955-4.837" /></g></svg>