<svg xmlns="http://www.w3.org/2000/svg" viewBox="0 0 129 140" fill="#fff"><g fill-rule="evenodd"><g fill-rule="nonzero"><path d="M80 49a9 9 0 1 0-9-9.011A9.011 9.011 0 0 0 80 49Z" /><path d="M95.03 47.15c-5.343 7.48-12.486 8.351-20.18 3.774-.527-.31-2.855-1.583-3.36-1.892-12.382-7.353-24.742-4.462-33.031 7.146-3.52 4.944 4.62 9.623 8.106 4.737 4.288-5.999 9.734-7.731 15.685-5.827-3.05 5.288-5.71 10.553-9.482 18.032-3.773 7.478-12.074 13.454-20.054 8.786-5.767-3.372-10.96 4.91-5.216 8.27 10.903 6.366 23.687 2.455 30.211-5.827.235.12.476.228.723.321 5.331 1.858 12.325 6.802 14.446 8.557 2.121 1.755 5.79 10.679 7.957 15.175 2.637 5.437 11.145 1.48 8.508-3.991-2.466-5.093-6.593-15.256-9.826-17.825-2.58-2.065-7.602-5.896-11.856-8.075a371.44 371.44 0 0 1 9.035-16.53c10.067 3.086 19.63-.55 26.44-10.093 3.52-4.944-4.621-9.624-8.107-4.737Z" /></g><g fill-rule="nonzero"><path d="M35.972 98h16.056c1.981 0 2.972.833 2.972 2.5s-.99 2.5-2.972 2.5H35.972c-1.981 0-2.972-.833-2.972-2.5s.99-2.5 2.972-2.5ZM27.972 106h16.056c1.981 0 2.972.833 2.972 2.5s-.99 2.5-2.972 2.5H27.972c-1.981 0-2.972-.833-2.972-2.5s.99-2.5 2.972-2.5Z" /></g></g></svg>