<svg xmlns="http://www.w3.org/2000/svg" viewBox="0 0 114 123" fill="#fff"><g stroke-width="0" fill-rule="evenodd"><path d="m44.74 43.727-11.523-30.4 2.886-1.093 11.524 30.399-2.886 1.094ZM21.5 53.571l-11.524-30.4 2.886-1.093 11.522 30.4L21.5 53.57Zm-2.596-49.57c6.035-2.287 12.58-.006 15.638 6.467L11.481 19.21c-2.002-6.873 1.386-12.92 7.423-15.208Zm40.59 30.093-8.485-22.378c-1.458-3.846-5.803-5.29-9.545-3.872l-4.036 1.53C33.8 1.423 25.407-1.854 17.78 1.038c-7.627 2.89-11.74 10.908-9.184 19.268L4.54 21.84C.8 23.259-.945 27.01.513 30.858l8.483 22.379c1.458 3.846 5.574 6.353 9.317 4.935l36.923-13.998c3.742-1.418 5.716-6.233 4.258-10.08Z" mask="url(#mask-3)" transform="translate(28.842 42.364)" /><path d="M59.883 29.256a6.4 6.4 0 0 1 .33 1.368L57.009 44.48l-.022.02c-.25.389-.573.723-.954.984-.865.614-1.492.258-2.427-.226-1.417-.744-1.025-1.245-.66-2.738.729-3.087 1.02-4.172 1.527-6.525l-4.196-.508-4.507 7.316c.169.944.519 1.86.992 4.106l.33 1.37c.253 1.445 1.148 3.112.693 4.019a3.15 3.15 0 0 1-2.677 1.761l-.046.011a2.38 2.38 0 0 1-2.046-1.2l-.021-.039-.014-.055c-1.15-3.98-2.22-7.402-3.346-11.388a3.297 3.297 0 0 1 .317-2.337c.352-.694 2.687-5.328 4.39-8.723 1.072-2.156 1.693-3.378 1.827-3.67.308-.625 1.13-1.534 1.112-1.602l-.66-2.738c-.15-.616-.12-.434-.33-1.37a12.205 12.205 0 0 0-.331-1.368l10.95-2.642c.959 3.97 1.624 6.517 2.974 12.319Z" /></g></svg>