<svg xmlns="http://www.w3.org/2000/svg" viewBox="0 0 114 123" fill="#fff"><defs><path id="icon_model_seating_white_a" d="M0 0h49.28v58.08H0z" /></defs><g fill-rule="evenodd"><path d="M57.08 40.48a9.24 9.24 0 1 0 0-18.48 9.24 9.24 0 0 0 0 18.48" /><g transform="translate(32 43.12)"><mask id="icon_model_seating_white_b" fill="#fff"><use xlink:href="#icon_model_seating_white_a" /></mask><path d="m49.273 32.711-.128-1.932c-.633-9.593-4.176-18.8-10.303-26.219-1.793-2.171-3.3-3.596-3.99-4.212A1.366 1.366 0 0 0 33.939 0h-17.93c-.35 0-.696.089-.995.27C2.632 7.791.013 31.436.013 31.436c-.255 4.782 3.323 4.527 3.323 4.527 3.066.064 3.258-4.527 3.258-4.527 2.939-16.516 7.028-19.449 7.028-19.449v12.371h2.81c1.517.99-.382 1.594-.382 1.594h-5.878c-1.853 0-1.725 1.466-1.725 1.466l-.192 6.568c-1.533.638-1.278 2.551-1.278 2.551l4.245 17.544a4.763 4.763 0 0 0 6.018 3.43 4.79 4.79 0 0 0 3.304-5.541l-3.216-15.752h15.78L30.362 52.52a4.768 4.768 0 0 0 3.357 5.364 4.724 4.724 0 0 0 5.982-3.647l3.273-17.314a2.18 2.18 0 0 0-1.286-2.41l-.784-.336v-6.822c-.127-1.276-1.278-1.212-1.278-1.212h-5.75c-.766-.255-.798-.669-.64-1.02.185-.403.61-.641 1.053-.653l1.76-.048V11.86c4.472 4.4 6.964 19.958 6.964 19.958-.064 4.209 3.002 4.081 3.002 4.081 3.578.064 3.259-3.188 3.259-3.188" mask="url(#icon/active/icon_model_seating_white_b)" /></g><path d="M73.36 97.68h5.28V80.96h-1.824zM51.36 80.96l3.008 16.72h6.351l2.961-16.72zM35.52 80.96v16.72h5.28l-3.75-16.72z" /></g></svg>