<svg xmlns="http://www.w3.org/2000/svg" xmlns:xlink="http://www.w3.org/1999/xlink" viewBox="0 0 114 123" fill="#fff"><g stroke-width="0" fill-rule="evenodd"><path d="M85.12 95.507c-1.515 1.661-5.263 1.91-6.596 1.867-5.748-.15-9.11-5.374-9.183-5.489-.118-.17-.238-.325-.357-.487 2.968-.602 7.137-1.769 9.074-3.773.849.742 1.762 1.35 2.739 1.748 4.252 1.74 4.87 3.602 4.923 3.75l.013.11c.12.962-.074 1.684-.612 2.274m-24.655-9.895c-3.225-.944-6.087 2.216-7.398 3.987-3.815-1.079-7.394-2.696-8.283-3.73l.922-1.638c1.45.084 3.902.19 6.965.19 5.824 0 13.837-.388 21.264-2.058a27.01 27.01 0 0 0 1.828 2.76c-.006.008-.004.01-.011.02-1.056 1.457-6.002 2.766-9.465 3.302-2.638-2.266-5.012-2.74-5.822-2.833M44.063 96.554c-.825.087-2.284.125-2.798-.583-.68-.936-.151-3.283.429-4.62l1.42-2.519c2.055 1.687 5.37 2.934 7.974 3.719-2.778 3.314-7.035 4.002-7.025 4.002m-3.104-23.819c.065-1.4.21-2.837.432-4.273.278-1.8.973-3.48 2.008-4.861 1.054-1.405 1.616-1.467 1.61-1.47.002.002.129.045.348.327.247.32.435.71.558 1.16.245.904.677 2.58 1.079 4.586-1.827 1.105-2.25 2.35-2.25 3.267v.033c0 .17.019.335.046.496.005.03.013.058.019.087.028.136.065.269.11.398.017.044.032.09.05.134.043.104.094.205.148.303.473.885 1.394 1.654 2.777 2.295.092 3.242-.526 4.708-1.182 4.988l-.226.117a3.941 3.941 0 0 1-1.535.475l-.391-.028-.002.03a2.339 2.339 0 0 1-.34-.041c-1.445-.309-2.28-2.103-2.723-3.555-.428-1.39-.608-2.894-.536-4.468m14.147-42.631L58.37 46.37c.346 1.723 2.83 1.66 3.088-.078l2.388-16.108c8.153 2.15 14.219 9.951 14.219 19.247 0 6.89-3.403 13.31-8.923 16.916-2.496-.493-5.396-.753-8.44-.753-3.94 0-7.607.431-10.433 1.222a.174.174 0 0 0-.018-.011 75.613 75.613 0 0 0-1.074-4.532 6.632 6.632 0 0 0-1.151-2.348c-1.023-1.316-2.16-1.612-2.931-1.63-.76-.028-1.48.21-2.207.671-1.51-2.911-2.3-6.17-2.3-9.535 0-9.408 6.214-17.291 14.518-19.328m5.596 43.77c-6.62 0-10.656-1.246-12.072-2.099a2.965 2.965 0 0 1-.38-.276c.928-.827 5.104-2.365 12.452-2.365 7.365 0 11.544 1.546 12.458 2.37-.915.825-5.094 2.37-12.458 2.37m-9.46 3.001c2.752.657 4.575 2.714 5.515 4.087-2.388.076-4.57.078-6.41.047.516-1.057.81-2.438.895-4.133m21.079 2.379c-3.973.83-8.13 1.294-11.984 1.536.873-1.68 2.298-2.852 3.86-3.665 2.258-.162 4.68-.495 6.786-1.067.329.877.777 1.985 1.338 3.195m16.77 13.594c-.074-.787-.766-4.044-7.015-6.602-3.534-1.446-6.53-7.698-7.93-11.392 1.53-.834 2.514-1.928 2.514-3.35 0-1.734-1.467-2.981-3.608-3.862 2.642-2.205 4.752-5 6.195-8.147l.353.05a1.868 1.868 0 0 0 2.11-1.588l1.18-8.35c.142-1-.54-1.92-1.525-2.095-.794-10.14-7.81-18.45-17.02-20.705l.412-2.768a1.569 1.569 0 0 0-1.56-1.798l-7.755.037a1.568 1.568 0 0 0-1.53 1.875l.526 2.623c-8.583 2.044-15.284 9.34-16.867 18.492l-.396.023a1.869 1.869 0 0 0-1.756 1.974l.492 8.419a1.868 1.868 0 0 0 1.974 1.756l.672-.04a23.623 23.623 0 0 0 2.027 4.343 14.29 14.29 0 0 0-2.533 6.202 43.71 43.71 0 0 0-.47 4.635c-.088 1.964.14 3.853.682 5.616.97 3.167 2.505 4.689 3.923 5.4l-3.477 6.168-.067.135c-.234.517-2.223 5.14-.118 8.052 1.153 1.593 3.137 2.255 5.956 1.956.304-.044 7.445-1.138 10.776-7.53 1.06-1.697 3.185-3.893 4.319-3.504l.247.078.23.014c.135.008 3.349.26 6.462 4.772.173.28 4.325 6.818 11.905 7.016.075.004.219.008.42.008 1.517 0 6.265-.23 8.772-2.967 1.2-1.312 1.712-3.02 1.48-4.946" /><path d="M46.08 46.921c.556-.872 1.473-1.452 2.584-1.635 1.183-.193 2.426.078 3.508.768 1.083.69 1.858 1.702 2.18 2.854.306 1.084.168 2.16-.387 3.032-1.186 1.862-3.92 2.252-6.092.868-2.173-1.384-2.977-4.025-1.792-5.887m-.023 8.738a8.524 8.524 0 0 0 4.57 1.352c2.486 0 4.84-1.137 6.189-3.256 1.078-1.693 1.359-3.74.79-5.76-.55-1.955-1.834-3.657-3.62-4.793-1.784-1.135-3.867-1.58-5.872-1.25-2.072.34-3.807 1.46-4.886 3.154v.001c-2.185 3.434-.917 8.168 2.829 10.552M64.46 48.908c.324-1.152 1.1-2.166 2.181-2.854a5.173 5.173 0 0 1 2.77-.829c1.36 0 2.615.586 3.321 1.696 1.186 1.862.382 4.503-1.792 5.886-2.175 1.384-4.908.995-6.09-.867-.556-.872-.695-1.949-.39-3.032m3.725 8.103a8.523 8.523 0 0 0 4.57-1.352c3.746-2.384 5.015-7.118 2.83-10.553-2.187-3.433-7.012-4.289-10.759-1.904-1.785 1.136-3.07 2.838-3.62 4.791-.568 2.022-.287 4.068.791 5.762 1.35 2.12 3.702 3.256 6.188 3.256M30.002 69.46l2.111-4.307-2.873-1.408-4.37 8.914h3.522l-3.538 3.485 4.866 2.974-3.41 3.376 2.251 2.274 6.314-6.25-4.857-2.968 6.185-6.09z" /></g></svg>