<svg xmlns="http://www.w3.org/2000/svg" viewBox="0 0 129 140" fill="currentColor"><path d="M64.5 36C83.554 36 99 51.446 99 70.5 99 89.554 83.554 105 64.5 105 45.446 105 30 89.554 30 70.5 30 51.446 45.446 36 64.5 36Zm15.813 31.625a2.875 2.875 0 0 0-2.876 2.875c0 7.145-5.792 12.938-12.937 12.938S51.562 77.644 51.562 70.5a2.875 2.875 0 0 0-5.75 0c0 10.321 8.367 18.688 18.688 18.688 10.321 0 18.688-8.367 18.688-18.688a2.875 2.875 0 0 0-2.876-2.875Zm-7.907-6.153a3.393 3.393 0 1 0 0-6.785 3.393 3.393 0 0 0 0 6.785Zm-15.812 0a3.393 3.393 0 1 0 0-6.785 3.393 3.393 0 0 0 0 6.785Z" fill-rule="nonzero" /></svg>