<svg xmlns="http://www.w3.org/2000/svg" viewBox="0 0 114 124" fill="currentColor"><path d="M72.017 57.055a6.534 6.534 0 0 0 2.16-5.204l4.222 2.835 7.88-8.634a3.899 3.899 0 0 1 5.513-.252 3.902 3.902 0 0 1 .251 5.512L81.897 62.431a3.897 3.897 0 0 1-5.057.606l-6.581-4.42 1.758-1.562Zm4.354-8.799c-5.026 0-9.103-4.077-9.103-9.108 0-5.023 4.077-9.101 9.103-9.101 5.029 0 9.106 4.078 9.106 9.101 0 5.03-4.077 9.108-9.106 9.108ZM19.633 90.218l18.359-10.606 6.424-9.91a6.476 6.476 0 0 0 3.24 3.626l2.82 1.375-6.446 9.942a3.913 3.913 0 0 1-1.32 1.257L23.536 96.976a3.9 3.9 0 0 1-5.33-1.425c0-.001 0-.002-.002-.003a3.902 3.902 0 0 1 1.428-5.33Z" /><path d="m63.925 78.358-15.128-7.367a3.904 3.904 0 0 1-.884-6.424l13.4-11.919-7.993-5.296-11.694 3.345A3.91 3.91 0 0 1 36.8 48.02a3.907 3.907 0 0 1 2.677-4.827l13.426-3.837a3.9 3.9 0 0 1 3.228.497l13.72 9.092a3.886 3.886 0 0 1 1.735 2.977 3.893 3.893 0 0 1-1.299 3.19L57.453 66.524l13.767 6.707a3.897 3.897 0 0 1 2.039 2.422 3.896 3.896 0 0 1-.428 3.135L62.42 95.646a3.902 3.902 0 0 1-6.64-4.1l8.144-13.188ZM83.825 78.545l-3.915.28 13.664-9.14-6.253 7.143 4.695-.3-14.424 9.14zM85.477 67.846l7.586-6.029 3.255 1.97zM21.156 65.197l11.08-7.417 5.342 1.225zM45.754 34.81l11.714-9.31 5.027 3.04zM20.584 75.319l7.088-5.633 3.041 1.84z" /></svg>