<svg xmlns="http://www.w3.org/2000/svg" viewBox="0 0 114 123" fill="currentColor"><defs><path id="icon/active/icon_model_standActive_white_a" d="M0 0h42.24v66.056H0z" /><path id="icon/active/icon_model_standActive_white_c" d="M0 0h14.298v13.858H0z" /></defs><g fill-rule="evenodd"><g transform="translate(35.88 33.024)"><mask id="icon/active/icon_model_standActive_white_b" fill="#fff"><use xlink:href="#icon/active/icon_model_standActive_white_a" /></mask><path d="M11.545 12.887C10.411 17.058 9.28 21.231 8.138 25.4c-.577 2.108-1.087 4.239-1.79 6.306-.654 1.93-2.213 2.752-3.94 2.251-2.01-.582-2.77-2.058-2.249-3.911C2.213 22.737 3.666 15.257 6.301 8.12 7.995 3.53 11.63.884 16.513.363c4.409-.47 8.888-.807 13.14 1.133 3.29 1.5 5.604 3.895 6.597 7.284 2.036 6.946 3.932 13.934 5.799 20.927.615 2.305-.283 3.782-2.277 4.273-2.025.5-3.457-.455-4.144-2.937-1.581-5.708-3.1-11.432-4.64-17.151-.092-.344-.062-.743-.77-.87-.034.68-.099 1.348-.1 2.017-.005 16.068-.002 32.136-.005 48.204 0 2.772-.006 2.795-2.899 2.775-5.498-.04-4.804.675-4.823-4.845-.028-7.924-.006-15.848-.008-23.772 0-.587.047-1.183-.04-1.758-.09-.605-.452-1.175-1.116-1.18-.724-.007-1.284.456-1.346 1.207-.08.948-.048 1.905-.049 2.859-.002 8.364-.04 16.729.03 25.092.015 1.794-.533 2.482-2.424 2.432-6.21-.165-5.312.776-5.327-5.258-.037-15.261-.012-30.522-.012-45.784v-2.059l-.554-.065" mask="url(#icon/active/icon_model_standActive_white_b)" /></g><g transform="translate(49.85 18.12)"><mask id="icon/active/icon_model_standActive_white_d" fill="#fff"><use xlink:href="#icon/active/icon_model_standActive_white_c" /></mask><path d="M14.298 6.944c-.011 3.758-3.259 6.906-7.135 6.914-3.856.01-7.14-3.152-7.163-6.897C-.025 3.065 3.211-.034 7.267.001c3.936.033 7.042 3.1 7.03 6.943" mask="url(#icon/active/icon_model_standActive_white_d)" /></g><rect x="38" y="102.425" width="38" height="5.26" rx="2.63" /></g></svg>