<svg xmlns="http://www.w3.org/2000/svg" viewBox="0 0 114 123" fill="#fff"><path d="M31.661 66.93h7.735a2.614 2.614 0 1 0 0-5.228H31.66a2.614 2.614 0 1 0 0 5.229Zm55.018-25.372H79.51v-1.862a6.964 6.964 0 0 0-13.926 0v6.606c0 .122.006.243.025.357a6.96 6.96 0 0 0 6.938 6.37 6.957 6.957 0 0 0 6.925-6.255h7.206a2.614 2.614 0 0 0 2.614-2.614 2.611 2.611 0 0 0-2.614-2.602Zm0 40.3H79.51V81.4a6.964 6.964 0 0 0-13.926 0v6.607c0 .12.006.242.025.357a6.964 6.964 0 0 0 13.876 0 2.19 2.19 0 0 0 .025-.357v-.931h7.168a2.614 2.614 0 0 0 2.614-2.615 2.611 2.611 0 0 0-2.614-2.602Zm-27.7 0H31.66a2.614 2.614 0 1 0 0 5.23h27.317a2.614 2.614 0 1 0 0-5.23ZM31.66 46.781h27.317a2.614 2.614 0 1 0 0-5.23H31.661a2.614 2.614 0 1 0 0 5.23Zm55.018 14.927h-27.44V61.128a6.964 6.964 0 0 0-13.926 0v6.606c0 .121.007.243.026.357a6.964 6.964 0 0 0 13.876 0 2.19 2.19 0 0 0 .025-.357v-.81h27.439a2.614 2.614 0 0 0 2.614-2.614 2.611 2.611 0 0 0-2.614-2.602Z" fill-rule="nonzero" /></svg>