<svg xmlns="http://www.w3.org/2000/svg" xmlns:xlink="http://www.w3.org/1999/xlink" viewBox="0 0 114 123" fill="#fff"><g fill-rule="evenodd"><path d="M64.423 57.565h22.415c1.921 0 3.522-1.6 3.522-3.522 0-2.242-1.6-3.843-3.522-3.843H65.384a7.581 7.581 0 0 0-5.764-5.763l-.96-.32c-4.163-.961-8.646 1.6-9.607 5.763L43.61 60.127l-6.404 11.527c-2.882 3.523-2.562 8.966 1.28 11.848.32.32.961.64 1.602.96 1.28 1.281 3.202 1.602 4.803 1.281l16.33-3.842-7.364 10.247c-1.281 1.921-.961 4.803.96 6.083 1.922 1.281 4.803.961 6.084-.96l14.41-19.853c.32-.64.64-1.601.64-2.562v-2.561c-.64-3.202-3.842-4.803-7.045-4.163l-9.286 2.241m.64-27.537c4.484.64 8.967-2.242 9.927-6.725.96-4.483-1.921-8.965-6.724-9.926-4.803-.96-8.966 1.921-9.926 6.404-.32 1.601 0 3.202.32 4.483.96 2.882 3.522 5.123 6.404 5.764M36.623 49.172l-3.474-1.854-6.645 12.45a1.64 1.64 0 0 0 .675 2.22l.58.309a1.64 1.64 0 0 0 2.22-.675l6.644-12.45Z" /><path d="m43.387 49.947-.805-12.918a1.64 1.64 0 0 0-2.447-1.325l-11.342 6.434a1.64 1.64 0 0 0 .037 2.875l12.148 6.483a1.64 1.64 0 0 0 2.411-1.548h-.002Z" /></g></svg>