<svg xmlns="http://www.w3.org/2000/svg" viewBox="0 0 129 140" fill="currentColor"><g fill-rule="nonzero"><path d="M51.967 31.281a5.779 5.779 0 1 0 11.557 0 5.779 5.779 0 0 0-11.557 0ZM41.788 71.299l2.849-3.476c-1.9-4.01-2.85-6.752-2.85-8.225 0-2.21 1.33-7.463 4.868-8.57v15.085l-4.867 37.4h5.899l7.837-28.168 8.798.696c2.536.336 3.804 1.173 3.804 2.512-.337 1.72-1.783 6.24-4.337 13.563h6.31l5.38-11.677c2.238-5.867 1.045-10.072-3.578-12.616-4.623-2.544-8.604-3.54-11.943-2.986l.745-9.04c2.432 3.305 4.907 5.327 7.423 6.066 2.517.74 6.282 1.56 11.296 2.458l1.438-3.438c-7.904-3.127-12.352-5.65-13.347-7.57-1.49-2.881-3.19-8.847-3.19-9.789 0-.941-7.535-5.303-16.636-2.822-5.563 1.517-7.807 4.656-9.089 6.432-1.282 1.775-5.584 5.62-3.319 14.73 1.323 3.973 3.492 7.118 6.509 9.435Z" /><path d="M101.084 74.216H82.672V95.72H63.578v19.35h-17.39v-5.375h12.275v-19.35h19.095V68.84h23.526z" /></g></svg>