<svg xmlns="http://www.w3.org/2000/svg" xmlns:xlink="http://www.w3.org/1999/xlink" viewBox="0 0 115 124" fill="#fff"><g stroke-width="0" fill-rule="evenodd"><path d="M31.704 89.573v-.212l-.005-.154c-.128-3.505-.376-15.574 1.828-23.745.195-.725.744-1.407 1.517-2.033 3.89 1.989 12.248 4.825 14.924 6.226.876.459 1.264 2.127 1.45 4.222-1.355-.111-2.556-.342-3.494-.53l-.019-.002c-2.102-.42-4.539.944-5.673 3.172-1.06 2.083-.622 4.313 1.17 5.964 1.569 1.445 4.839 2.046 8.25 2.118v5.297H33.263c-1.487 0-1.559-.117-1.559-.323Zm12-33.267c-2.822-1.784-4.894-4.677-5.684-7.94-.76-3.142-.304-6.311 1.286-8.922 1.565-2.57 4.045-4.288 6.982-4.837a10.782 10.782 0 0 1 1.985-.183c3.601 0 7.057 1.79 9.387 4.67a13.923 13.923 0 0 0-2.416 5.119c-.962 4.03-.004 7.952 2.252 10.776a10.523 10.523 0 0 1-1.718 1.438l-.321.213v3.219l.333.036a20.483 20.483 0 0 1-6.313-1.09 646.633 646.633 0 0 1-5.436-1.862v-.424l-.337-.213Zm34.003-.38c.333-.115.798-.168 1.316-.168 1.548 0 3.567.476 4.003 1.186.634 1.032 1.214 3.21-.63 4.83-1.326 1.165-6.933 2.479-9.626 1.26-.852-.385-1.249-.954-1.249-1.79 0-2.202 1.908-3.842 6.186-5.317ZM58.847 74.46c2.791-1.121 5.387-2.527 7.282-3.555 1.192-.646 2.221-1.204 2.815-1.426 1.369-.512 4.057-.926 5.448.764.785.954 1.394 3.102-.318 4.806-1.766 1.756-9.454 6.052-15.329 7.315-5.006 1.076-12.161.846-14.245-1.074-1.706-1.571-1.248-3.205-.824-4.04.705-1.384 2.178-2.36 3.46-2.36.154 0 .306.013.453.043l.018.004c2.513.502 6.717 1.338 11.24-.477Zm-.315-18.341c.452.429.936.823 1.457 1.173v2a16.472 16.472 0 0 0-2.912-.68V57.34a12.016 12.016 0 0 0 1.455-1.222Zm24.985 9.577c-.189-.708-.627-1.367-1.241-1.971.483-.232.898-.48 1.188-.734 2.323-2.04 2.147-4.933.943-6.894-1.14-1.861-5.55-2.281-7.229-1.701-.505.174-1.021.365-1.534.574a13.918 13.918 0 0 0 3.369-6.262c1.655-6.923-2.325-13.543-8.89-14.785-4.238-.801-8.51.845-11.455 3.97-3.138-3.616-7.953-5.57-12.716-4.68-3.413.639-6.28 2.612-8.074 5.559-1.77 2.907-2.282 6.42-1.442 9.89.654 2.7 2.118 5.17 4.131 7.08a70.517 70.517 0 0 0-1.724-.57c-1.523-.473-5.409-.053-6.275 1.358-.866 1.412-1.355 3.982.787 5.863.081.07.201.15.308.228-.846.748-1.462 1.585-1.712 2.512-2.251 8.343-2.001 20.57-1.871 24.12l.004.32c0 1.747 2.068 1.747 3.179 1.747H82.993c1.175 0 2.369 0 2.369-1.048v-.214c0-.21.677-14.888-1.845-24.362Z" /></g></svg>