<svg xmlns="http://www.w3.org/2000/svg" viewBox="0 0 114 123" fill="#fff"><g fill-rule="evenodd"><path d="m68.422 99.5 23.36-43.793 3.721.271L87.707 99.5z" /><path d="M36.41 69.008 25.516 92.8s-3.322 4.934 2.029 6.52c0 0 3.507.53 5.169-2.644l9.6-17.447s2.213-5.111 3.873-3.349l6.832 7.227s1.844 3.7 1.844 13.922c0 0-.738 2.467 4.245 2.467 0 0 3.509.178 3.509-2.289v-9.342s-.556-10.751-10.523-21.503l1.663-11.985s-.138-1.64 1.524-1.64c.756 0 2.962 3.258 6.965 6.06 1.244.872 3.522 1.867 6.83 2.983 0 0 3.554 1.404 4.78-.438 1.228-1.842.46-3.533-1.028-4.167l-6.151-2.798s-7.014-4.406-6.645-10.044c0 0 1.274-3.41-5.169-7.838-3.767-2.591-7.149-1.733-8.676-1.153l-15.689 6.875c-1.015.531-2.213 1.762-2.213 3.35v11.984c0 3.109 5.822 3.791 5.822 0v-8.285s-.102-.882 2.483-2.466c3.815-1.883 5.475-2.294 4.984-1.234 0 .176-5.169 7.578-5.169 12.16v11.28h.005ZM56.943 34.61c4.085 0 7.556-3.266 7.556-7.555 0-4.085-3.267-7.556-7.556-7.556s-7.555 3.267-7.555 7.556 3.266 7.555 7.555 7.555Z" fill-rule="nonzero" /></g></svg>