<svg xmlns="http://www.w3.org/2000/svg" viewBox="0 0 114 123" fill="#fff"><defs><path id="icon_model_zeroTorque_white_a" d="M0 0h61.41v46.686H0z" /></defs><g fill-rule="evenodd"><path d="M73.228 84.547H40.06a3.23 3.23 0 0 0-2.883 1.58 3.228 3.228 0 0 0 2.883 4.87h33.168a3.227 3.227 0 1 0 0-6.45M56.617 42.525a5.403 5.403 0 0 0-2.82.784 5.921 5.921 0 0 0-2.09 2.09 5.403 5.403 0 0 0-.784 2.82v15.293c0 1.005.261 1.958.784 2.82a5.932 5.932 0 0 0 2.09 2.09 5.411 5.411 0 0 0 2.82.783c1.593 0 2.938-.56 4.048-1.67 1.097-1.124 1.66-2.456 1.66-4.023V48.206c-.014-1.554-.563-2.899-1.66-4.009-1.097-1.124-2.455-1.672-4.048-1.672" /><g transform="translate(26 33)"><mask id="icon_model_zeroTorque_white_b" fill="#fff"><use xlink:href="#icon_model_zeroTorque_white_a" /></mask><path d="M41.966 30.003c0 2.05-.509 3.944-1.515 5.668-1.005 1.724-2.39 3.095-4.14 4.113a11.222 11.222 0 0 1-5.694 1.515c-2.05 0-3.944-.51-5.667-1.515a11.285 11.285 0 0 1-4.114-4.113c-1.006-1.724-1.515-3.618-1.515-5.668V15.716c0-2.05.509-3.944 1.515-5.668a11.295 11.295 0 0 1 4.114-4.114c1.736-1.018 3.617-1.515 5.667-1.515 2.051 0 3.957.51 5.694 1.515a11.178 11.178 0 0 1 4.14 4.114 11.096 11.096 0 0 1 1.515 5.668v14.287ZM58.182 0H3.228A3.228 3.228 0 0 0 0 3.228v40.23a3.227 3.227 0 0 0 3.228 3.228h54.954c.856 0 1.677-.34 2.282-.946a3.224 3.224 0 0 0 .946-2.282V3.228A3.23 3.23 0 0 0 58.182 0Z" mask="url(#icon_model_zeroTorque_white_b)" /></g></g></svg>