<svg xmlns="http://www.w3.org/2000/svg" viewBox="0 0 114 123" fill="currentColor"><g stroke-width="0" fill-rule="evenodd"><path d="M57.924 32.409c2.083 0 3.84-.727 5.284-2.17 1.444-1.444 2.17-3.202 2.17-5.285 0-2.072-.726-3.83-2.17-5.284-1.443-1.444-3.201-2.17-5.284-2.17-2.072 0-3.84.726-5.284 2.17-1.453 1.444-2.18 3.212-2.17 5.284 0 2.083.727 3.84 2.17 5.284 1.444 1.444 3.212 2.17 5.284 2.17M75.308 54.664h1.33a5.604 5.604 0 0 1 1.544-.538l.06-.01c.062-.062.128-.12.188-.184.24-.336.505-.647.783-.946a9.68 9.68 0 0 1-1.318-4.454c-.005-.124.005-.246.006-.37h-.717l-5.313-7.896c-2.73-4.017-5.972-6.02-9.733-6.02H50.853c-3.094 0-5.52.933-7.297 2.779-1.768 1.856-2.652 4.34-2.652 7.445v11.658l-5.618 7.327c-.609.814-.903 1.58-.903 2.327 0 2.004 1.306 2.996 3.928 2.996 1.198 0 2.318-.825 3.368-2.485l3.822-5.991c1.57-1.503 2.16-3.438 1.796-5.765v-9.39H48.8v53.154c0 2.662.098 4.282.324 4.871.59 1.552 1.876 2.328 3.86 2.328 1.915 0 3.163-.707 3.752-2.111.285-.806.432-2.397.432-4.764V68.788h2.014v30.27c0 4.291 1.325 6.432 3.968 6.432 1.846 0 3.054-.668 3.643-1.994.285-.667.432-2.101.432-4.321V45.059l4.096 6.394c1.404 2.141 2.73 3.211 3.987 3.211" /><path d="M76.351 55.03a3.266 3.266 0 0 1-3.266-3.265V33.649a3.266 3.266 0 0 1 6.532 0v18.116a3.266 3.266 0 0 1-3.266 3.266" /></g></svg>