<svg xmlns="http://www.w3.org/2000/svg" viewBox="0 0 114 123" fill="#fff"><g stroke-width="0" fill-rule="evenodd"><path d="M75.866 64.525A2.83 2.83 0 0 0 72 65.56a5.66 5.66 0 0 0-2.069-7.732l-2.453-1.412a2.83 2.83 0 0 0-3.866 1.034 5.66 5.66 0 0 0-2.069-7.732l-2.453-1.412a2.83 2.83 0 0 0-3.866 1.034l4.124-7.141c1.234-2.142 1.167-4.933-.497-6.764-2.765-3.03-7.32-2.327-9.184.895l-2.911 5.04-1.843-3.19c-1.751-3.03-5.425-4.681-8.714-3.474a7.074 7.074 0 0 0-3.74 10.198l5.306 9.19a2.841 2.841 0 0 1 0 2.832l-3.668 6.353c-3.123 5.41-1.273 12.333 4.145 15.457l14.7 8.487c8.117 4.688 18.501 1.903 23.19-6.213l2.83-4.9c2.355-4.052.962-9.237-3.096-11.585M75.057 36.82c-.56.26-1.077.617-1.518 1.045a5.52 5.52 0 0 0-3.83-1.558c-1.394 0-2.688.519-3.642 1.459a4.994 4.994 0 0 0-1.48 3.589c0 3.336 2.881 5.928 7.244 9.851l.176.158 1.532 1.354.3-.265 1.228-1.086.18-.16c4.362-3.924 7.243-6.516 7.243-9.852 0-1.375-.525-2.648-1.48-3.59a5.142 5.142 0 0 0-3.642-1.458 5.52 5.52 0 0 0-2.31.514" /></g></svg>