<svg xmlns="http://www.w3.org/2000/svg" xmlns:xlink="http://www.w3.org/1999/xlink" viewBox="0 0 114 123" fill="#fff"><path d="M44.914 55.457a3.362 3.362 0 0 0-4.7-.671 3.362 3.362 0 0 0-.671 4.7l3.997 5.33c.504.67.43 1.604-.157 2.192L42.04 68.35a1.668 1.668 0 0 1-2.476-.116l-9.421-11.31V41.358c0-1.857-1.5-3.357-3.357-3.357a3.354 3.354 0 0 0-3.357 3.357V64.27c0 1.143.388 2.255 1.101 3.147l10.921 14.09a6.262 6.262 0 0 1 1.091 2.276c.19.724.85 1.217 1.606 1.217h13.816c.923 0 1.679-.755 1.679-1.679v-11.75a13.45 13.45 0 0 0-2.686-8.057l-6.043-8.057ZM87.214 38a3.354 3.354 0 0 0-3.357 3.357v15.569l-9.42 11.31a1.685 1.685 0 0 1-2.477.115l-1.343-1.343a1.677 1.677 0 0 1-.157-2.193l3.997-5.33a3.362 3.362 0 0 0-.671-4.7 3.362 3.362 0 0 0-4.7.672l-6.043 8.057a13.45 13.45 0 0 0-2.686 8.057v11.75c0 .924.755 1.679 1.679 1.679h13.816c.745 0 1.417-.493 1.606-1.217a6.262 6.262 0 0 1 1.09-2.277L89.47 67.417a5.041 5.041 0 0 0 1.101-3.147V41.357c0-1.857-1.5-3.357-3.357-3.357Z" fill-rule="nonzero" stroke-width="0" /></svg>