<svg xmlns="http://www.w3.org/2000/svg" viewBox="0 0 114 123.2" fill="#fff"><g fill-rule="evenodd"><path d="m75.891 70-.053 8.157H56.785l-.48 8.157H37.679v8.529H28V103h18.325v-8.58h19.053v-8.106h18.199v-8.58H99V70zM50.67 32.396c3.046 0 5.566-2.527 5.566-5.698 0-3.118-2.468-5.698-5.565-5.698-3.045 0-5.566 2.58-5.566 5.698 0 3.118 2.52 5.698 5.566 5.698" /><path d="m56.604 57.124.105-7.848 6.72 3.601c2.206.753 4.988-1.075 2.626-3.978l-9.241-5.268v-4.784c.21-6.129-11.814-7.311-11.814 0v17.524c.998 2.15 1.995 3.01 2.993 3.333l-.053 23.33c.21 1.936 3.308 5.377 5.986.377l-.262-20.535 7.193 3.064c.105 2.634-.21 5.698 0 8.816.84 2.527 4.515 3.602 6.143.108V62.822l-10.396-5.698Z" /></g></svg>