<svg xmlns="http://www.w3.org/2000/svg" xmlns:xlink="http://www.w3.org/1999/xlink" viewBox="0 0 114 123" fill="#fff"><path d="M73.872 99.843a3.792 3.792 0 0 1-5.2-1.185l-7.924-12.97a3.918 3.918 0 0 1-.92-1.378l-.14-.356-.515-.843.206.053-3.152-7.95a7.255 7.255 0 0 1-.956.07h-.111l-3.126 23.534c-.034 2.066-1.799 2.996-3.943 3.158a3.418 3.418 0 0 1-3.82-3.447l3.93-28.747a7.166 7.166 0 0 1-.204-1.67v-6.566l-2.984 7.442a3.299 3.299 0 0 1-4.439 1.931 3.753 3.753 0 0 1-1.981-4.707l8.75-21.832c.185-.504.486-.957.878-1.324a7.17 7.17 0 0 1 6.949-5.42h.101c.505 0 1.008.054 1.501.16a3.24 3.24 0 0 1 3.634.912L71.423 51.46c.4.463.666 1.026.773 1.628.035.027.07.047.105.077l-.777 12.395a3.36 3.36 0 1 1-6.693-.444l.64-10.187-3.028-3.503v16.687c-.002.3-.022.599-.061.896l4.71 11.888c.118.302.2.616.246.937l7.718 12.851a3.721 3.721 0 0 1-1.184 5.158ZM53.712 36.58a7.79 7.79 0 1 1 7.743-7.79 7.766 7.766 0 0 1-7.743 7.79Z" fill-rule="nonzero" /></svg>