<svg xmlns="http://www.w3.org/2000/svg" viewBox="0 0 129 140" fill="currentColor"><path d="M95 70.679c-.102 17.144-14.208 30.774-31.34 30.31-16.186-.435-29.226-13.487-29.65-29.673C33.559 54.148 47.254 40.042 64.429 40a30.564 30.564 0 0 1 7.792.983 30.417 30.417 0 0 1 5.891 2.21c.322.16.203.65-.155.643h-.083a13.3 13.3 0 0 0-5.463 1.162 13.348 13.348 0 0 0-3.973 2.746 13.264 13.264 0 0 0-3.908 9.353 13.326 13.326 0 0 0 3.711 9.317 13.268 13.268 0 0 0 9.71 4.11 13.373 13.373 0 0 0 12.081-7.828 13.337 13.337 0 0 0 1.186-5.516v-.018c0-.363.488-.476.649-.155a30.401 30.401 0 0 1 2.186 5.898c.632 2.49.965 5.093.947 7.774Z" fill-rule="nonzero" /></svg>