<svg xmlns="http://www.w3.org/2000/svg" viewBox="0 0 114 123.2" fill="#fff"><defs><path id="icon_active_bow_white_a" d="M0 0h37v71H0z" /></defs><g fill-rule="evenodd"><path d="M55 32a7 7 0 1 0 0-14 7 7 0 0 0 0 14M55.287 34.537h-.574c-.047-.301-.407-.537-.852-.537-.475 0-.861.268-.861.599v.802c0 .33.384.599.861.599.462 0 .838-.257.856-.575h.563c.02.32.394.575.859.575.474 0 .861-.268.861-.6V34.6c0-.33-.386-.599-.861-.599-.447 0-.807.236-.852.537" /><g transform="translate(39 34)"><mask id="icon_active_bow_white_b" fill="#fff"><use xlink:href="#icon_active_bow_white_a" /></mask><path d="M26.892 2.67a4.704 4.704 0 0 0-1.89-1.164C23.802 1.046 21.201.153 19.95 0l-3.721 5.323L12.753.35c-1.99.101-2.77-.073-4.912.713C4.231 2.39 1.524 11.599.253 15.228c-1.27 3.629 2.519 5.89 5.312 6.642h1.396l12.846-5.127c2.596-1.454 1.876-3.933 1.844-4.038-.573-1.776-1.962-2.233-3.026-2.303a3.398 3.398 0 0 0-1.497.248l-9.25 3.692a.477.477 0 0 1-.351-.886l9.25-3.691a4.373 4.373 0 0 1 1.91-.313c1.111.072 3.092.554 3.87 2.966.01.036 1 3.338-2.316 5.173l-.054.026-12.484 4.982v2.007l-.435 41.45A4.94 4.94 0 0 0 12.202 71c2.724 0 3.134-2.215 3.134-4.945l1.35-22.483s-.427-1.593.378-1.715c.804-.122.552 1.442.552 1.442l.865 23.323c.202 2.303 2.267 4.457 4.565 4.256 2.298-.204 3.957-2.687 3.757-4.99l-.934-49.564c.024-.356.04-.713.063-1.068 1.791 3.721 2.265 7.799 2.023 12.756-.282 5.819 8.717 5.792 8.998 0C37.446 17.908 34.05 9.744 26.892 2.67" mask="url(#icon/active/icon_active_bow_white_b)" /></g></g></svg>