<svg xmlns="http://www.w3.org/2000/svg" xmlns:xlink="http://www.w3.org/1999/xlink" viewBox="0 0 114 124" fill="#fff"><path d="M27.963 56.812a1.75 1.75 0 1 1 3.498.001 1.75 1.75 0 0 1-3.498-.001m-2.524 2.106a3.633 3.633 0 0 1-3.124 4.078 9.773 9.773 0 0 0 3.798 2.7 3.634 3.634 0 1 1 7.196 0 9.796 9.796 0 0 0 3.787-2.681 3.634 3.634 0 1 1 2.39-6.61 9.721 9.721 0 0 0-1.628-5.218 3.636 3.636 0 0 1-6.175 1.053 3.635 3.635 0 0 1 .434-5.122 9.776 9.776 0 0 0-4.811 0 3.634 3.634 0 0 1-1.051 6.166 3.633 3.633 0 0 1-4.69-2.097 9.744 9.744 0 0 0-1.629 5.107 3.62 3.62 0 0 1 1.895-.532 3.633 3.633 0 0 1 3.608 3.156m-5.59-2.34c0-5.449 4.417-9.865 9.866-9.864 5.448.001 9.864 4.418 9.863 9.866-.001 5.449-4.419 9.864-9.867 9.864-5.448-.001-9.864-4.419-9.863-9.867m-4.217.003c0 7.777 6.304 14.081 14.08 14.081 7.777 0 14.08-6.304 14.08-14.08 0-7.777-6.303-14.081-14.08-14.081-7.776 0-14.08 6.304-14.08 14.08" /><path d="M54.64 79.5H12.084c-.471-1.284 2.018-.448 4.813-3.351 3.38-1.426 5.551-1.308 8.668-2.783 2.013-.953 4.852-3.52 10.566-9.273 1.223-1.23 2.364-2.66 3.488-4.076l.173-.217c1.697-2.138 3.362-4.216 5.219-5.493 5.92-4.073 9.13-5.43 9.629-4.073V79.5ZM60.745 43.87c.499-1.688 5.964-2.595 11.885 2.466 1.857 1.587 3.46 5.018 5.157 7.674l.897 1.645c1.124 1.758 1.365 3.17 2.588 4.7 5.714 7.148 8.553 10.339 10.566 11.522 3.117 1.834 3.873 2.712 7.252 4.484 2.253 1.181 2.243 2.466 5.382 3.139H62.763l-2.018-35.63Z" /><path d="m50.205 50.995 8.97-6.577s3.41-2.493 5.18-1.795c1.772.698 4.463 13.854 4.463 14.128 0 .274-.897 12.334-.897 13.43 0 1.097-1.066 9.32-1.066 9.32H51.154" /></svg>