<svg xmlns="http://www.w3.org/2000/svg" viewBox="0 0 129 140" fill="currentColor"><g fill-rule="nonzero"><path d="M74.876 38.292a7.223 7.223 0 1 0 14.447 0 7.223 7.223 0 0 0-14.447 0ZM46.12 58.036c3.843-4.637 7.022-6.955 9.536-6.955H65.92c-3.604 9.464-6.925 15.873-9.964 19.228-4.557 5.032-6.858 7.385-14.4 7.385-5.026 0-9.425-2.462-13.195-7.385l-2.603 3.61c5.704 6.725 11.42 10.546 17.149 11.466 9.515 1.526 14.678-2.551 19.387-5.845 3.77 1.846 14.843 5.34 13.899 12.674-.63 4.89-2.397 10.51-5.3 16.865h6.482c3.41-5.099 5.743-11.34 7-18.726 1.257-7.385-3.622-13.857-14.637-19.419l7.15-8.839c2.237 5.9 5.241 9.465 9.011 10.696 3.77 1.231 9.727-.212 17.869-4.329l-1.885-3.692c-6.447 1.586-10.927 1.764-13.44.533-3.77-1.846-2.815-6.637-5.683-11.491-3.168-5.36-5.385-7.455-8.822-9.456-3.437-2.002-17.02-2.932-22.695.964-3.783 2.597-6.665 6.258-8.646 10.982l3.522 1.734Z" /></g></svg>