<svg xmlns="http://www.w3.org/2000/svg" viewBox="0 0 129 140" fill="currentColor"><g fill-rule="nonzero"><path d="M68.432 36.816c-.005 2.761 1.68 5.253 4.266 6.313a6.994 6.994 0 0 0 7.547-1.473 6.756 6.756 0 0 0 1.505-7.44C80.68 31.664 78.155 30 75.354 30c-3.82 0-6.917 3.05-6.922 6.816Zm27.8 32.549a19.449 19.449 0 0 1-9.734-6.14c-1.42-1.76-2.509-6.14-3.234-13.115a.874.874 0 0 0-.06-.299A5.938 5.938 0 0 0 79 46.741a27.586 27.586 0 0 0-8.343 0c-.102.028-.203.06-.302.1h-.11c-.181.07-.356.153-.525.248-1.47.765-5.34 3.388-9.985 11.496a37.579 37.579 0 0 0-4.162 14.704v.884a2.2 2.2 0 0 0 2.157 1.69 2.26 2.26 0 0 0 2.015-1.282c1.159-3.18 3.789-10.065 4.574-12.122.152-.4.385-.765.686-1.073a26.876 26.876 0 0 1 4.03-3.338v23.15c.014.049.014.1 0 .149a46.827 46.827 0 0 1-4.474 11.684c-1.783 3.338-5.199 7.62-9.068 13.224a3.725 3.725 0 0 0-.494 1.819c.117.716.439 1.384.927 1.927a3.238 3.238 0 0 0 2.53.994 2.895 2.895 0 0 0 1.984-.765c.06 0 .09-.09.151-.15 3.87-3.278 6.741-7.809 9.22-11.922a118.114 118.114 0 0 0 6.62-12.916.59.59 0 0 1 .937-.179c5.045 4.69 8.098 8.508 9.16 11.456a46.032 46.032 0 0 1 2.115 10.82c.047 1.295 1.035 2.37 2.338 2.543h1.3c1.503-.136 2.69-1.318 2.811-2.802-.12-9.002-1.29-15.122-2.952-18.49-1.753-3.636-5.64-8.346-11.658-14.128a.621.621 0 0 1-.212-.537c.423-5.246.786-7.63 1.058-7.213 3.87 6.11 10.399 7.273 14.107 7.481a2.413 2.413 0 0 0 2.509-1.877v-.09a2.45 2.45 0 0 0-1.713-2.861Z" /><path d="M40.972 94h16.056C59.01 94 60 94.833 60 96.5s-.99 2.5-2.972 2.5H40.972C38.99 99 38 98.167 38 96.5s.99-2.5 2.972-2.5ZM32.972 102h16.056c1.981 0 2.972.833 2.972 2.5s-.99 2.5-2.972 2.5H32.972c-1.981 0-2.972-.833-2.972-2.5s.99-2.5 2.972-2.5Z" /></g></svg>