<svg xmlns="http://www.w3.org/2000/svg" xmlns:xlink="http://www.w3.org/1999/xlink" viewBox="0 0 114 123" fill="#fff"><g fill-rule="evenodd"><path d="M64.656 57.565h22.415c1.921 0 3.522-1.6 3.522-3.522 0-2.242-1.6-3.843-3.522-3.843H65.617a7.581 7.581 0 0 0-5.764-5.763l-.96-.32c-4.163-.961-8.646 1.6-9.607 5.763l-5.443 10.247-6.404 11.527c-2.882 3.523-2.562 8.966 1.28 11.848.32.32.961.64 1.602.96 1.28 1.281 3.202 1.602 4.803 1.281l16.33-3.842-7.364 10.247c-1.281 1.921-.961 4.803.96 6.083 1.921 1.281 4.803.961 6.084-.96l14.41-19.853c.32-.64.64-1.601.64-2.562v-2.561c-.64-3.202-3.843-4.803-7.045-4.163l-9.286 2.241m.64-27.537c4.484.64 8.967-2.242 9.927-6.725.96-4.483-1.921-8.965-6.724-9.926-4.803-.96-8.966 1.921-9.927 6.404-.32 1.601 0 3.202.32 4.483.961 2.882 3.523 5.123 6.405 5.764M33.42 49.418l3.281 1.75 6.276-11.758a1.55 1.55 0 0 0-.638-2.096l-.548-.292a1.55 1.55 0 0 0-2.096.637L33.42 49.418Z" /><path d="m27.032 48.685.76 12.2a1.55 1.55 0 0 0 2.311 1.252l10.712-6.077a1.55 1.55 0 0 0-.035-2.714l-11.473-6.124a1.549 1.549 0 0 0-2.277 1.462l.002.001Z" /></g></svg>