<svg xmlns="http://www.w3.org/2000/svg" xmlns:xlink="http://www.w3.org/1999/xlink" viewBox="0 0 114 123" fill="#fff"><path d="M78.814 45.028c-3.349-.542-11.4-5.97-17.19-4.16-5.789 1.809-5.335 3.257-8.23 4.162-2.896.905-3.348-.542-9.137 1.267-5.788 1.809-9.316 10.855-11.758 13.208 0 0-2.415 2.442-1.538 5.247.878 2.803 3.8 1.988 3.8 1.988 10.133-3.166 13.57-7.419 13.57-7.419s5.245 1.538 9.586.181c4.342-1.357 7.78-5.61 7.78-5.61s5.248 1.538 15.378-1.628c0 0 2.866-.996 1.989-3.8-.878-2.804-4.25-3.436-4.25-3.436Zm-1.63 10.042c-8.683 2.713-6.872 8.502-17.004 11.67-10.132 3.167-11.942-2.62-20.625.092-2.894.906-3.89 2.804-3.436 4.255 1.356 4.34 12.665 15.101 28.586 10.127 15.92-4.976 19.086-20.264 17.73-24.604-.454-1.45-2.357-2.445-5.25-1.54Z" fill-rule="nonzero" stroke-width="0" /></svg>