<svg xmlns="http://www.w3.org/2000/svg" xmlns:xlink="http://www.w3.org/1999/xlink" viewBox="0 0 114 123" fill="#fff"><g fill-rule="nonzero"><path d="M64.174 24.513c.484.738.652 1.635.467 2.496a3.316 3.316 0 0 1-1.453 2.091c-3.855 2.476-5.162 9.12-2.763 15.937.084.232.137.47.165.702 2.282 6.209 6.195 10.072 12.577 13.087a3.3 3.3 0 0 1 1.505 4.384c-.784 1.624-2.733 2.333-4.393 1.599-5.625-2.659-9.87-6.03-12.904-10.62-.131.249-.24.497-.335.749-.383 1.008-1.15 2.1-1.28 5.305a9.44 9.44 0 0 1-.139 1.247 3.243 3.243 0 0 1-.036.395c-1.712 11.424 1.503 24.226 8.69 32.699a3.292 3.292 0 0 1-.44 4.64 3.377 3.377 0 0 1-4.695-.376c-3.726-4.394-6.527-9.7-8.329-15.39a3.36 3.36 0 0 1-2.178-.928l-15.27-14.59a3.292 3.292 0 0 1-.916-1.545 3.285 3.285 0 0 1-.081-3.161A3.352 3.352 0 0 1 35 61.443l8.128-.843c.005-.5.033-1 .039-1.478.075-5.14 2.335-11.206 5.388-14.094.909-.869 1.876-1.678 2.893-2.42a5.181 5.181 0 0 1 1.335-.7c-1.106-7.62 1.215-14.814 6.754-18.373a3.382 3.382 0 0 1 2.523-.462c.87.182 1.63.7 2.114 1.437v.003ZM48.449 66.715l-6.062.63 6.327 6.05a50.678 50.678 0 0 1-.265-6.68Zm19.495-34.547c3.863 0 6.983 3.086 6.983 6.908 0 3.822-3.12 6.908-6.983 6.908a7.013 7.013 0 0 1-4.94-2.02 6.863 6.863 0 0 1-2.042-4.888c0-3.822 3.161-6.908 6.982-6.908ZM87.36 61.534c-1.402-.812-2.448-2.007-2.448-2.007-3.303-3.245-5.508-.31-5.508-.31l-.139 11.12c-.209-.052-1.641-2.433-1.862-2.419-1.286.084-2.403 1.688-2.403 3.964C75 74.156 76.48 76 78.305 76c1.824 0 3.304-1.844 3.304-4.118 0-.247-.02-.486-.054-.722h.003l-.59-10.765C84.73 67.595 90 63.388 90 62.719c0-.297-1.533-.544-2.64-1.185Z" /></g></svg>