<svg xmlns="http://www.w3.org/2000/svg" viewBox="0 0 114 123" fill="#fff"><defs><path id="icon_active_turnWave_white_a" d="M0 0h56.658v94.002H0z" /></defs><g stroke-width="0" fill-rule="evenodd"><path d="M76.456 48.764v2.957c2.522 1.729 3.86 4.089 3.86 6.695 0 3.379-2.242 6.343-6.433 8.054v-4.785l-5.135 5.777 5.135 5.779v-4.012c5.782-2.093 9.004-6.23 9.004-10.88-.003-3.908-2.283-7.366-6.43-9.585M76.453 48.762s.002 0 .003.002v-.002h-.003ZM57.59 34.963a7.734 7.734 0 1 0 0-15.469 7.734 7.734 0 0 0 0 15.47" /><g transform="translate(29 14)"><mask id="icon_active_turnWave_white_b" fill="#fff"><use xlink:href="#icon_active_turnWave_white_a" /></mask><path d="M54.918.822s-3.366-2.482-4.997 1.18L49.14 5.48l-.855-1.869s-.32-.666-1.134-.414c0 0-.8.267-.485 1.156 0 0 1.29 3.925 1.747 4.456 0 0-.345.019-.826 1.327 0 0-3.271 7.386-6.74 11.035 0 0-1.502 2.41-6.222 1.337 0 0-9.497-1.982-16.865 1.596 0 0-3.846 1.872-5.772 7.927 0 0-1.487 4.073-4.074 14.147l-1.495 5.826c-2.586-1.731-4.081-4.091-4.081-6.698 0-2.799 1.728-5.311 4.678-7.066v-2.817C2.648 37.622 0 41.192 0 45.235c0 3.647 2.156 6.976 5.78 9.257l-.012.053s-1.267 3.467 2.31 4.513c0 0 2.802 1.039 4.127-2.034 1.658.351 3.443.544 5.336.544V54.91c-1.626 0-3.154-.144-4.574-.403l5.13-18.513s.606-.77.66.496v54.715s-.33 2.807 1.928 2.752h4.073s2.532.496 2.422-2.532V60.82s.12-1.486 1.437-1.486c0 0 1.206 0 1.26 1.486v30.991s-.275 2.152 1.707 2.176h5.009s1.872.356 1.817-2.342V41.334s-.726-5.953 2.967-9.252c0 0 10.809-11.069 12.37-20.01 0 0 .653-1.757.144-2.059 0 0 2.529-3.022 2.758-5.915 0 0 .245-2.104-1.731-3.276" mask="url(#icon/active/icon_active_turnWave_white_b)" /></g></g></svg>